<?xml version="1.0" encoding="UTF-8" standalone="no"?>
<!-- Created with Inkscape (http://www.inkscape.org/) -->

<svg
   xmlns:dc="http://purl.org/dc/elements/1.1/"
   xmlns:cc="http://creativecommons.org/ns#"
   xmlns:rdf="http://www.w3.org/1999/02/22-rdf-syntax-ns#"
   xmlns:svg="http://www.w3.org/2000/svg"
   xmlns="http://www.w3.org/2000/svg"
   xmlns:xlink="http://www.w3.org/1999/xlink"
   xmlns:sodipodi="http://sodipodi.sourceforge.net/DTD/sodipodi-0.dtd"
   xmlns:inkscape="http://www.inkscape.org/namespaces/inkscape"
   width="210mm"
   height="297mm"
   id="svg2"
   version="1.1"
   inkscape:version="0.47 r22583"
   sodipodi:docname="ip15pal.svg">
  <defs
     id="defs4">
    <inkscape:perspective
       sodipodi:type="inkscape:persp3d"
       inkscape:vp_x="0 : 526.18109 : 1"
       inkscape:vp_y="0 : 1000 : 0"
       inkscape:vp_z="744.09448 : 526.18109 : 1"
       inkscape:persp3d-origin="372.04724 : 350.78739 : 1"
       id="perspective10" />
    <inkscape:perspective
       id="perspective4123"
       inkscape:persp3d-origin="0.5 : 0.33333333 : 1"
       inkscape:vp_z="1 : 0.5 : 1"
       inkscape:vp_y="0 : 1000 : 0"
       inkscape:vp_x="0 : 0.5 : 1"
       sodipodi:type="inkscape:persp3d" />
  </defs>
  <sodipodi:namedview
     id="base"
     pagecolor="#ffffff"
     bordercolor="#666666"
     borderopacity="1.0"
     inkscape:pageopacity="0.0"
     inkscape:pageshadow="2"
     inkscape:zoom="0.98994949"
     inkscape:cx="2143.5559"
     inkscape:cy="1929.2266"
     inkscape:document-units="px"
     inkscape:current-layer="layer1"
     showgrid="true"
     inkscape:window-width="1366"
     inkscape:window-height="693"
     inkscape:window-x="0"
     inkscape:window-y="24"
     inkscape:window-maximized="1">
    <inkscape:grid
       type="xygrid"
       id="grid2816" />
  </sodipodi:namedview>
  <metadata
     id="metadata7">
    <rdf:RDF>
      <cc:Work
         rdf:about="">
        <dc:format>image/svg+xml</dc:format>
        <dc:type
           rdf:resource="http://purl.org/dc/dcmitype/StillImage" />
        <dc:title />
      </cc:Work>
    </rdf:RDF>
  </metadata>
  <g
     inkscape:label="Capa 1"
     inkscape:groupmode="layer"
     id="layer1">
    <rect
       style="fill:#ffffff;fill-opacity:1;stroke:#000000;stroke-width:1.38169861;stroke-miterlimit:4;stroke-opacity:1;stroke-dasharray:none;stroke-dashoffset:0"
       id="rect3810"
       width="50"
       height="210"
       x="1520"
       y="-817.63782"
       inkscape:tile-cx="25"
       inkscape:tile-cy="97.362183"
       inkscape:tile-w="50"
       inkscape:tile-h="210"
       inkscape:tile-x0="0"
       inkscape:tile-y0="-7.6378174" />
    <use
       x="0"
       y="0"
       inkscape:tiled-clone-of="#rect3810"
       xlink:href="#rect3810"
       id="use3876"
       width="744.09448"
       height="1052.3622" />
    <use
       x="0"
       y="0"
       inkscape:tiled-clone-of="#rect3810"
       xlink:href="#rect3810"
       transform="translate(50,0)"
       id="use3878"
       width="744.09448"
       height="1052.3622" />
    <use
       x="0"
       y="0"
       inkscape:tiled-clone-of="#rect3810"
       xlink:href="#rect3810"
       transform="translate(100,0)"
       id="use3880"
       width="744.09448"
       height="1052.3622" />
    <use
       x="0"
       y="0"
       inkscape:tiled-clone-of="#rect3810"
       xlink:href="#rect3810"
       transform="translate(150,0)"
       id="use3882"
       width="744.09448"
       height="1052.3622" />
    <use
       x="0"
       y="0"
       inkscape:tiled-clone-of="#rect3810"
       xlink:href="#rect3810"
       transform="translate(200,0)"
       id="use3884"
       width="744.09448"
       height="1052.3622" />
    <use
       x="0"
       y="0"
       inkscape:tiled-clone-of="#rect3810"
       xlink:href="#rect3810"
       transform="translate(250,0)"
       id="use3886"
       width="744.09448"
       height="1052.3622" />
    <use
       x="0"
       y="0"
       inkscape:tiled-clone-of="#rect3810"
       xlink:href="#rect3810"
       transform="translate(300,0)"
       id="use3888"
       width="744.09448"
       height="1052.3622" />
    <use
       x="0"
       y="0"
       inkscape:tiled-clone-of="#rect3810"
       xlink:href="#rect3810"
       transform="translate(350,0)"
       id="use3890"
       width="744.09448"
       height="1052.3622" />
    <use
       x="0"
       y="0"
       inkscape:tiled-clone-of="#rect3810"
       xlink:href="#rect3810"
       transform="translate(400,0)"
       id="use3892"
       width="744.09448"
       height="1052.3622" />
    <use
       x="0"
       y="0"
       inkscape:tiled-clone-of="#rect3810"
       xlink:href="#rect3810"
       transform="translate(450,0)"
       id="use3894"
       width="744.09448"
       height="1052.3622" />
    <use
       x="0"
       y="0"
       inkscape:tiled-clone-of="#rect3810"
       xlink:href="#rect3810"
       transform="translate(500,0)"
       id="use3896"
       width="744.09448"
       height="1052.3622" />
    <use
       x="0"
       y="0"
       inkscape:tiled-clone-of="#rect3810"
       xlink:href="#rect3810"
       transform="translate(550,0)"
       id="use3898"
       width="744.09448"
       height="1052.3622" />
    <use
       x="0"
       y="0"
       inkscape:tiled-clone-of="#rect3810"
       xlink:href="#rect3810"
       transform="translate(600,0)"
       id="use3900"
       width="744.09448"
       height="1052.3622" />
    <use
       x="0"
       y="0"
       inkscape:tiled-clone-of="#rect3810"
       xlink:href="#rect3810"
       transform="translate(650,0)"
       id="use3902"
       width="744.09448"
       height="1052.3622" />
    <use
       x="0"
       y="0"
       inkscape:tiled-clone-of="#rect3810"
       xlink:href="#rect3810"
       transform="translate(700,0)"
       id="use3904"
       width="744.09448"
       height="1052.3622" />
    <use
       x="0"
       y="0"
       inkscape:tiled-clone-of="#rect3810"
       xlink:href="#rect3810"
       transform="translate(750,0)"
       id="use3906"
       width="744.09448"
       height="1052.3622" />
    <use
       x="0"
       y="0"
       inkscape:tiled-clone-of="#rect3810"
       xlink:href="#rect3810"
       transform="translate(800,0)"
       id="use3908"
       width="744.09448"
       height="1052.3622" />
    <use
       x="0"
       y="0"
       inkscape:tiled-clone-of="#rect3810"
       xlink:href="#rect3810"
       transform="translate(850,0)"
       id="use3910"
       width="744.09448"
       height="1052.3622" />
    <use
       x="0"
       y="0"
       inkscape:tiled-clone-of="#rect3810"
       xlink:href="#rect3810"
       transform="translate(900,0)"
       id="use3912"
       width="744.09448"
       height="1052.3622" />
    <use
       x="0"
       y="0"
       inkscape:tiled-clone-of="#rect3810"
       xlink:href="#rect3810"
       transform="translate(950,0)"
       id="use3914"
       width="744.09448"
       height="1052.3622" />
    <use
       x="0"
       y="0"
       inkscape:tiled-clone-of="#rect3810"
       xlink:href="#rect3810"
       transform="translate(1000,0)"
       id="use3916"
       width="744.09448"
       height="1052.3622" />
    <use
       x="0"
       y="0"
       inkscape:tiled-clone-of="#rect3810"
       xlink:href="#rect3810"
       transform="translate(1050,0)"
       id="use3918"
       width="744.09448"
       height="1052.3622" />
    <use
       x="0"
       y="0"
       inkscape:tiled-clone-of="#rect3810"
       xlink:href="#rect3810"
       transform="translate(1100,0)"
       id="use3920"
       width="744.09448"
       height="1052.3622" />
    <use
       x="0"
       y="0"
       inkscape:tiled-clone-of="#rect3810"
       xlink:href="#rect3810"
       transform="translate(1150,0)"
       id="use3922"
       width="744.09448"
       height="1052.3622" />
    <use
       x="0"
       y="0"
       inkscape:tiled-clone-of="#rect3810"
       xlink:href="#rect3810"
       transform="translate(1200,0)"
       id="use3924"
       width="744.09448"
       height="1052.3622" />
    <use
       x="0"
       y="0"
       inkscape:tiled-clone-of="#rect3810"
       xlink:href="#rect3810"
       transform="translate(1250,0)"
       id="use3926"
       width="744.09448"
       height="1052.3622" />
    <use
       x="0"
       y="0"
       inkscape:tiled-clone-of="#rect3810"
       xlink:href="#rect3810"
       transform="translate(1300,0)"
       id="use3928"
       width="744.09448"
       height="1052.3622" />
    <use
       x="0"
       y="0"
       inkscape:tiled-clone-of="#rect3810"
       xlink:href="#rect3810"
       transform="translate(1350,0)"
       id="use3930"
       width="744.09448"
       height="1052.3622" />
    <use
       x="0"
       y="0"
       inkscape:tiled-clone-of="#rect3810"
       xlink:href="#rect3810"
       transform="translate(1400,0)"
       id="use3932"
       width="744.09448"
       height="1052.3622" />
    <use
       x="0"
       y="0"
       inkscape:tiled-clone-of="#rect3810"
       xlink:href="#rect3810"
       transform="translate(1450,0)"
       id="use3934"
       width="744.09448"
       height="1052.3622" />
    <use
       x="0"
       y="0"
       inkscape:tiled-clone-of="#rect3810"
       xlink:href="#rect3810"
       transform="translate(1500,0)"
       id="use3936"
       width="744.09448"
       height="1052.3622" />
    <use
       x="0"
       y="0"
       inkscape:tiled-clone-of="#rect3810"
       xlink:href="#rect3810"
       transform="translate(1550,0)"
       id="use3938"
       width="744.09448"
       height="1052.3622" />
    <path
       style="fill:none;stroke:#000000;stroke-width:1;stroke-linecap:butt;stroke-linejoin:miter;stroke-miterlimit:4;stroke-opacity:1;stroke-dasharray:1, 1;stroke-dashoffset:0;display:inline"
       d="m 1520,-707.63782 0,400"
       id="path3940"
       inkscape:connector-type="polyline" />
    <rect
       inkscape:tile-y0="-7.6378174"
       inkscape:tile-x0="0"
       inkscape:tile-h="210"
       inkscape:tile-w="50"
       inkscape:tile-cy="97.362183"
       inkscape:tile-cx="25"
       y="-607.63782"
       x="1520"
       height="210"
       width="50"
       id="rect3942"
       style="fill:#ffffff;fill-opacity:1;stroke:#000000;stroke-width:1.38169861;stroke-miterlimit:4;stroke-opacity:1;stroke-dasharray:none;stroke-dashoffset:0" />
    <use
       id="use3944"
       xlink:href="#rect3810"
       inkscape:tiled-clone-of="#rect3810"
       y="0"
       x="0"
       transform="translate(0,210)"
       width="744.09448"
       height="1052.3622" />
    <use
       id="use3946"
       transform="translate(50,210)"
       xlink:href="#rect3810"
       inkscape:tiled-clone-of="#rect3810"
       y="0"
       x="0"
       width="744.09448"
       height="1052.3622" />
    <use
       id="use3948"
       transform="translate(100,210)"
       xlink:href="#rect3810"
       inkscape:tiled-clone-of="#rect3810"
       y="0"
       x="0"
       width="744.09448"
       height="1052.3622" />
    <use
       id="use3950"
       transform="translate(150,210)"
       xlink:href="#rect3810"
       inkscape:tiled-clone-of="#rect3810"
       y="0"
       x="0"
       width="744.09448"
       height="1052.3622" />
    <use
       id="use3952"
       transform="translate(200,210)"
       xlink:href="#rect3810"
       inkscape:tiled-clone-of="#rect3810"
       y="0"
       x="0"
       width="744.09448"
       height="1052.3622" />
    <use
       id="use3954"
       transform="translate(250,210)"
       xlink:href="#rect3810"
       inkscape:tiled-clone-of="#rect3810"
       y="0"
       x="0"
       width="744.09448"
       height="1052.3622" />
    <use
       id="use3956"
       transform="translate(300,210)"
       xlink:href="#rect3810"
       inkscape:tiled-clone-of="#rect3810"
       y="0"
       x="0"
       width="744.09448"
       height="1052.3622" />
    <use
       id="use3958"
       transform="translate(350,210)"
       xlink:href="#rect3810"
       inkscape:tiled-clone-of="#rect3810"
       y="0"
       x="0"
       width="744.09448"
       height="1052.3622" />
    <use
       id="use3960"
       transform="translate(400,210)"
       xlink:href="#rect3810"
       inkscape:tiled-clone-of="#rect3810"
       y="0"
       x="0"
       width="744.09448"
       height="1052.3622" />
    <use
       id="use3962"
       transform="translate(450,210)"
       xlink:href="#rect3810"
       inkscape:tiled-clone-of="#rect3810"
       y="0"
       x="0"
       width="744.09448"
       height="1052.3622" />
    <use
       id="use3964"
       transform="translate(500,210)"
       xlink:href="#rect3810"
       inkscape:tiled-clone-of="#rect3810"
       y="0"
       x="0"
       width="744.09448"
       height="1052.3622" />
    <use
       id="use3966"
       transform="translate(550,210)"
       xlink:href="#rect3810"
       inkscape:tiled-clone-of="#rect3810"
       y="0"
       x="0"
       width="744.09448"
       height="1052.3622" />
    <use
       id="use3968"
       transform="translate(600,210)"
       xlink:href="#rect3810"
       inkscape:tiled-clone-of="#rect3810"
       y="0"
       x="0"
       width="744.09448"
       height="1052.3622" />
    <use
       id="use3970"
       transform="translate(650,210)"
       xlink:href="#rect3810"
       inkscape:tiled-clone-of="#rect3810"
       y="0"
       x="0"
       width="744.09448"
       height="1052.3622" />
    <use
       id="use3972"
       transform="translate(700,210)"
       xlink:href="#rect3810"
       inkscape:tiled-clone-of="#rect3810"
       y="0"
       x="0"
       width="744.09448"
       height="1052.3622" />
    <use
       id="use3974"
       transform="translate(750,210)"
       xlink:href="#rect3810"
       inkscape:tiled-clone-of="#rect3810"
       y="0"
       x="0"
       width="744.09448"
       height="1052.3622" />
    <use
       id="use3976"
       transform="translate(800,210)"
       xlink:href="#rect3810"
       inkscape:tiled-clone-of="#rect3810"
       y="0"
       x="0"
       width="744.09448"
       height="1052.3622" />
    <use
       id="use3978"
       transform="translate(850,210)"
       xlink:href="#rect3810"
       inkscape:tiled-clone-of="#rect3810"
       y="0"
       x="0"
       width="744.09448"
       height="1052.3622" />
    <use
       id="use3980"
       transform="translate(900,210)"
       xlink:href="#rect3810"
       inkscape:tiled-clone-of="#rect3810"
       y="0"
       x="0"
       width="744.09448"
       height="1052.3622" />
    <use
       id="use3982"
       transform="translate(950,210)"
       xlink:href="#rect3810"
       inkscape:tiled-clone-of="#rect3810"
       y="0"
       x="0"
       width="744.09448"
       height="1052.3622" />
    <use
       id="use3984"
       transform="translate(1000,210)"
       xlink:href="#rect3810"
       inkscape:tiled-clone-of="#rect3810"
       y="0"
       x="0"
       width="744.09448"
       height="1052.3622" />
    <use
       id="use3986"
       transform="translate(1050,210)"
       xlink:href="#rect3810"
       inkscape:tiled-clone-of="#rect3810"
       y="0"
       x="0"
       width="744.09448"
       height="1052.3622" />
    <use
       id="use3988"
       transform="translate(1100,210)"
       xlink:href="#rect3810"
       inkscape:tiled-clone-of="#rect3810"
       y="0"
       x="0"
       width="744.09448"
       height="1052.3622" />
    <use
       id="use3990"
       transform="translate(1150,210)"
       xlink:href="#rect3810"
       inkscape:tiled-clone-of="#rect3810"
       y="0"
       x="0"
       width="744.09448"
       height="1052.3622" />
    <use
       id="use3992"
       transform="translate(1200,210)"
       xlink:href="#rect3810"
       inkscape:tiled-clone-of="#rect3810"
       y="0"
       x="0"
       width="744.09448"
       height="1052.3622" />
    <use
       id="use3994"
       transform="translate(1250,210)"
       xlink:href="#rect3810"
       inkscape:tiled-clone-of="#rect3810"
       y="0"
       x="0"
       width="744.09448"
       height="1052.3622" />
    <use
       id="use3996"
       transform="translate(1300,210)"
       xlink:href="#rect3810"
       inkscape:tiled-clone-of="#rect3810"
       y="0"
       x="0"
       width="744.09448"
       height="1052.3622" />
    <use
       id="use3998"
       transform="translate(1350,210)"
       xlink:href="#rect3810"
       inkscape:tiled-clone-of="#rect3810"
       y="0"
       x="0"
       width="744.09448"
       height="1052.3622" />
    <use
       id="use4000"
       transform="translate(1400,210)"
       xlink:href="#rect3810"
       inkscape:tiled-clone-of="#rect3810"
       y="0"
       x="0"
       width="744.09448"
       height="1052.3622" />
    <use
       id="use4002"
       transform="translate(1450,210)"
       xlink:href="#rect3810"
       inkscape:tiled-clone-of="#rect3810"
       y="0"
       x="0"
       width="744.09448"
       height="1052.3622" />
    <use
       id="use4004"
       transform="translate(1500,210)"
       xlink:href="#rect3810"
       inkscape:tiled-clone-of="#rect3810"
       y="0"
       x="0"
       width="744.09448"
       height="1052.3622" />
    <use
       id="use4006"
       transform="translate(1550,210)"
       xlink:href="#rect3810"
       inkscape:tiled-clone-of="#rect3810"
       y="0"
       x="0"
       width="744.09448"
       height="1052.3622" />
    <path
       inkscape:connector-type="polyline"
       id="path4008"
       d="m 1517.3092,-499.23047 0,400.000003"
       style="fill:#999999;stroke:#000000;stroke-width:1;stroke-linecap:butt;stroke-linejoin:miter;stroke-miterlimit:4;stroke-opacity:1;stroke-dasharray:1, 1;stroke-dashoffset:0;display:inline" />
    <rect
       style="fill:#999999;fill-opacity:1;stroke:#000000;stroke-width:1.38169861;stroke-miterlimit:4;stroke-opacity:1;stroke-dasharray:none;stroke-dashoffset:0"
       id="rect4010"
       width="50"
       height="210"
       x="1517.3092"
       y="-399.23047"
       inkscape:tile-cx="25"
       inkscape:tile-cy="97.362183"
       inkscape:tile-w="50"
       inkscape:tile-h="210"
       inkscape:tile-x0="0"
       inkscape:tile-y0="-7.6378174" />
    <use
       height="1052.3622"
       width="744.09448"
       transform="translate(-2.6908,418.40735)"
       x="0"
       y="0"
       inkscape:tiled-clone-of="#rect3810"
       xlink:href="#rect3810"
       id="use4012"
       style="fill:#ffffff" />
    <use
       height="1052.3622"
       width="744.09448"
       x="0"
       y="0"
       inkscape:tiled-clone-of="#rect3810"
       xlink:href="#rect3810"
       transform="translate(47.3092,418.40735)"
       id="use4014"
       style="fill:#999999" />
    <use
       height="1052.3622"
       width="744.09448"
       x="0"
       y="0"
       inkscape:tiled-clone-of="#rect3810"
       xlink:href="#rect3810"
       transform="translate(97.3092,418.40735)"
       id="use4016"
       style="fill:#999999" />
    <use
       height="1052.3622"
       width="744.09448"
       x="0"
       y="0"
       inkscape:tiled-clone-of="#rect3810"
       xlink:href="#rect3810"
       transform="translate(147.3092,418.40735)"
       id="use4018"
       style="fill:#999999" />
    <use
       height="1052.3622"
       width="744.09448"
       x="0"
       y="0"
       inkscape:tiled-clone-of="#rect3810"
       xlink:href="#rect3810"
       transform="translate(197.3092,418.40735)"
       id="use4020"
       style="fill:#999999" />
    <use
       height="1052.3622"
       width="744.09448"
       x="0"
       y="0"
       inkscape:tiled-clone-of="#rect3810"
       xlink:href="#rect3810"
       transform="translate(247.3092,418.40735)"
       id="use4022"
       style="fill:#999999" />
    <use
       height="1052.3622"
       width="744.09448"
       x="0"
       y="0"
       inkscape:tiled-clone-of="#rect3810"
       xlink:href="#rect3810"
       transform="translate(297.3092,418.40735)"
       id="use4024"
       style="fill:#999999" />
    <use
       height="1052.3622"
       width="744.09448"
       x="0"
       y="0"
       inkscape:tiled-clone-of="#rect3810"
       xlink:href="#rect3810"
       transform="translate(347.3092,418.40735)"
       id="use4026"
       style="fill:#999999" />
    <use
       height="1052.3622"
       width="744.09448"
       x="0"
       y="0"
       inkscape:tiled-clone-of="#rect3810"
       xlink:href="#rect3810"
       transform="translate(397.3092,418.40735)"
       id="use4028" />
    <use
       height="1052.3622"
       width="744.09448"
       x="0"
       y="0"
       inkscape:tiled-clone-of="#rect3810"
       xlink:href="#rect3810"
       transform="translate(447.3092,418.40735)"
       id="use4030" />
    <use
       height="1052.3622"
       width="744.09448"
       x="0"
       y="0"
       inkscape:tiled-clone-of="#rect3810"
       xlink:href="#rect3810"
       transform="translate(497.3092,418.40735)"
       id="use4032" />
    <use
       height="1052.3622"
       width="744.09448"
       x="0"
       y="0"
       inkscape:tiled-clone-of="#rect3810"
       xlink:href="#rect3810"
       transform="translate(547.3092,418.40735)"
       id="use4034" />
    <use
       height="1052.3622"
       width="744.09448"
       x="0"
       y="0"
       inkscape:tiled-clone-of="#rect3810"
       xlink:href="#rect3810"
       transform="translate(597.3092,418.40735)"
       id="use4036" />
    <use
       height="1052.3622"
       width="744.09448"
       x="0"
       y="0"
       inkscape:tiled-clone-of="#rect3810"
       xlink:href="#rect3810"
       transform="translate(647.3092,418.40735)"
       id="use4038" />
    <use
       height="1052.3622"
       width="744.09448"
       x="0"
       y="0"
       inkscape:tiled-clone-of="#rect3810"
       xlink:href="#rect3810"
       transform="translate(697.3092,418.40735)"
       id="use4040" />
    <use
       height="1052.3622"
       width="744.09448"
       x="0"
       y="0"
       inkscape:tiled-clone-of="#rect3810"
       xlink:href="#rect3810"
       transform="translate(747.3092,418.40735)"
       id="use4042" />
    <use
       height="1052.3622"
       width="744.09448"
       x="0"
       y="0"
       inkscape:tiled-clone-of="#rect3810"
       xlink:href="#rect3810"
       transform="translate(797.3092,418.40735)"
       id="use4044" />
    <use
       height="1052.3622"
       width="744.09448"
       x="0"
       y="0"
       inkscape:tiled-clone-of="#rect3810"
       xlink:href="#rect3810"
       transform="translate(847.3092,418.40735)"
       id="use4046" />
    <use
       height="1052.3622"
       width="744.09448"
       x="0"
       y="0"
       inkscape:tiled-clone-of="#rect3810"
       xlink:href="#rect3810"
       transform="translate(897.3092,418.40735)"
       id="use4048" />
    <use
       height="1052.3622"
       width="744.09448"
       x="0"
       y="0"
       inkscape:tiled-clone-of="#rect3810"
       xlink:href="#rect3810"
       transform="translate(947.3092,418.40735)"
       id="use4050" />
    <use
       height="1052.3622"
       width="744.09448"
       x="0"
       y="0"
       inkscape:tiled-clone-of="#rect3810"
       xlink:href="#rect3810"
       transform="translate(997.3092,418.40735)"
       id="use4052" />
    <use
       height="1052.3622"
       width="744.09448"
       x="0"
       y="0"
       inkscape:tiled-clone-of="#rect3810"
       xlink:href="#rect3810"
       transform="translate(1047.3092,418.40735)"
       id="use4054" />
    <use
       height="1052.3622"
       width="744.09448"
       x="0"
       y="0"
       inkscape:tiled-clone-of="#rect3810"
       xlink:href="#rect3810"
       transform="translate(1097.3092,418.40735)"
       id="use4056" />
    <use
       height="1052.3622"
       width="744.09448"
       x="0"
       y="0"
       inkscape:tiled-clone-of="#rect3810"
       xlink:href="#rect3810"
       transform="translate(1147.3092,418.40735)"
       id="use4058" />
    <use
       height="1052.3622"
       width="744.09448"
       x="0"
       y="0"
       inkscape:tiled-clone-of="#rect3810"
       xlink:href="#rect3810"
       transform="translate(1197.3092,418.40735)"
       id="use4060" />
    <use
       height="1052.3622"
       width="744.09448"
       x="0"
       y="0"
       inkscape:tiled-clone-of="#rect3810"
       xlink:href="#rect3810"
       transform="translate(1247.3092,418.40735)"
       id="use4062" />
    <use
       height="1052.3622"
       width="744.09448"
       x="0"
       y="0"
       inkscape:tiled-clone-of="#rect3810"
       xlink:href="#rect3810"
       transform="translate(1297.3092,418.40735)"
       id="use4064" />
    <use
       height="1052.3622"
       width="744.09448"
       x="0"
       y="0"
       inkscape:tiled-clone-of="#rect3810"
       xlink:href="#rect3810"
       transform="translate(1347.3092,418.40735)"
       id="use4066" />
    <use
       height="1052.3622"
       width="744.09448"
       x="0"
       y="0"
       inkscape:tiled-clone-of="#rect3810"
       xlink:href="#rect3810"
       transform="translate(1397.3092,418.40735)"
       id="use4068" />
    <use
       height="1052.3622"
       width="744.09448"
       x="0"
       y="0"
       inkscape:tiled-clone-of="#rect3810"
       xlink:href="#rect3810"
       transform="translate(1447.3092,418.40735)"
       id="use4070" />
    <use
       height="1052.3622"
       width="744.09448"
       x="0"
       y="0"
       inkscape:tiled-clone-of="#rect3810"
       xlink:href="#rect3810"
       transform="translate(1497.3092,418.40735)"
       id="use4072" />
    <use
       height="1052.3622"
       width="744.09448"
       x="0"
       y="0"
       inkscape:tiled-clone-of="#rect3810"
       xlink:href="#rect3810"
       transform="translate(1547.3092,418.40735)"
       id="use4074" />
    <path
       style="fill:#000000;stroke:#000000;stroke-width:1px;stroke-linecap:butt;stroke-linejoin:miter;stroke-opacity:1;display:inline"
       d="m 7045.7144,-1773.3521 0,100"
       id="path4101"
       inkscape:connector-type="polyline" />
    <path
       style="fill:#000000;stroke:#000000;stroke-width:1px;stroke-linecap:butt;stroke-linejoin:miter;stroke-opacity:1"
       d="m 7045.7144,-1713.3521 -1600,0"
       id="path4103"
       inkscape:connector-type="polyline" />
    <path
       style="fill:#000000;stroke:#000000;stroke-width:1px;stroke-linecap:butt;stroke-linejoin:miter;stroke-opacity:1;display:inline"
       d="m 5445.7144,-1773.3521 0,100"
       id="path4105"
       inkscape:connector-type="polyline" />
    <text
       xml:space="preserve"
       style="font-size:32px;font-style:normal;font-weight:normal;fill:#000000;fill-opacity:1;stroke:none;font-family:Bitstream Vera Sans"
       x="2323.574"
       y="-458.47949"
       id="text4107"><tspan
         sodipodi:role="line"
         id="tspan4109"
         x="2323.574"
         y="-458.47949">0</tspan></text>
    <text
       xml:space="preserve"
       style="font-size:72px;font-style:normal;font-weight:normal;fill:#000000;fill-opacity:1;stroke:none;font-family:Bitstream Vera Sans"
       x="5920"
       y="-1827.6378"
       id="text4140"><tspan
         sodipodi:role="line"
         id="tspan4142"
         x="5920"
         y="-1827.6378">Dirección IP</tspan></text>
    <path
       style="fill:#b3b3b3;fill-opacity:1;stroke:#000000;stroke-width:2.85714293;stroke-miterlimit:4;stroke-opacity:1;stroke-dasharray:none;stroke-dashoffset:0"
       d="m 1518.5715,-294.78068 0,-102.85714 22.8571,0 22.8572,0 0,102.85714 0,102.85714 -22.8572,0 -22.8571,0 0,-102.85714 z"
       id="path2926" />
    <path
       style="fill:#b3b3b3;fill-opacity:1;stroke:#000000;stroke-width:2.85714293;stroke-miterlimit:4;stroke-opacity:1;stroke-dasharray:none;stroke-dashoffset:0"
       d="m 1570,-294.78068 0,-102.85714 22.8572,0 22.8571,0 0,102.85714 0,102.85714 -22.8571,0 -22.8572,0 0,-102.85714 z"
       id="path2928" />
    <path
       style="fill:#b3b3b3;fill-opacity:1;stroke:#000000;stroke-width:2.85714293;stroke-miterlimit:4;stroke-opacity:1;stroke-dasharray:none;stroke-dashoffset:0"
       d="m 1665.5772,-294.78068 c 0,-57.35714 0.3813,-80.82143 0.8473,-52.14286 0.466,28.67857 0.466,75.60714 0,104.28572 -0.466,28.67857 -0.8473,5.21428 -0.8473,-52.14286 z"
       id="path2930" />
    <path
       style="fill:#b3b3b3;fill-opacity:1;stroke:#000000;stroke-width:2.85714293;stroke-miterlimit:4;stroke-opacity:1;stroke-dasharray:none;stroke-dashoffset:0"
       d="m 1618.5715,-294.78068 0,-102.85714 22.7238,0 22.7238,0 0,102.85714 0,102.85714 -22.7238,0 -22.7238,0 0,-102.85714 z"
       id="path2932" />
    <path
       style="fill:#b3b3b3;fill-opacity:1;stroke:#000000;stroke-width:2.85714293;stroke-miterlimit:4;stroke-opacity:1;stroke-dasharray:none;stroke-dashoffset:0"
       d="m 1670,-294.78068 0,-102.85714 22.8572,0 22.8571,0 0,102.85714 0,102.85714 -22.8571,0 -22.8572,0 0,-102.85714 z"
       id="path2934" />
    <path
       style="fill:#b3b3b3;fill-opacity:1;stroke:#000000;stroke-width:2.85714293;stroke-miterlimit:4;stroke-opacity:1;stroke-dasharray:none;stroke-dashoffset:0"
       d="m 1718.5715,-294.78068 0,-102.85714 22.8571,0 22.8572,0 0,102.85714 0,102.85714 -22.8572,0 -22.8571,0 0,-102.85714 z"
       id="path2936" />
    <path
       style="fill:#b3b3b3;fill-opacity:1;stroke:#000000;stroke-width:2.85714293;stroke-miterlimit:4;stroke-opacity:1;stroke-dasharray:none;stroke-dashoffset:0"
       d="m 1770,-294.78068 0,-102.85714 22.8572,0 22.8571,0 0,102.85714 0,102.85714 -22.8571,0 -22.8572,0 0,-102.85714 z"
       id="path2938" />
    <path
       style="fill:#b3b3b3;fill-opacity:1;stroke:#000000;stroke-width:2.85714293;stroke-miterlimit:4;stroke-opacity:1;stroke-dasharray:none;stroke-dashoffset:0"
       d="m 1818.5715,-294.78068 0,-102.85714 22.8571,0 22.8572,0 0,102.85714 0,102.85714 -22.8572,0 -22.8571,0 0,-102.85714 z"
       id="path2940" />
    <path
       style="fill:#b3b3b3;fill-opacity:1;stroke:#000000;stroke-width:2.85714293;stroke-miterlimit:4;stroke-opacity:1;stroke-dasharray:none;stroke-dashoffset:0"
       d="m 1870,-294.78068 0,-102.85714 22.8572,0 22.8571,0 0,102.85714 0,102.85714 -22.8571,0 -22.8572,0 0,-102.85714 z"
       id="path2942" />
    <path
       style="fill:#b3b3b3;fill-opacity:1;stroke:#000000;stroke-width:2.85714293;stroke-miterlimit:4;stroke-opacity:1;stroke-dasharray:none;stroke-dashoffset:0"
       d="m 3071.2623,-501.75946 0,-102.85714 22.8571,0 22.8572,0 0,102.85714 0,102.85714 -22.8572,0 -22.8571,0 0,-102.85714 z"
       id="path2944" />
    <path
       style="fill:#b3b3b3;fill-opacity:1;stroke:#000000;stroke-width:2.85714293;stroke-miterlimit:4;stroke-opacity:1;stroke-dasharray:none;stroke-dashoffset:0"
       d="m 3022.6908,-501.75946 0,-102.85714 22.8572,0 22.8571,0 0,102.85714 0,102.85714 -22.8571,0 -22.8572,0 0,-102.85714 z"
       id="path2946" />
    <path
       style="fill:#b3b3b3;fill-opacity:1;stroke:#000000;stroke-width:2.85714293;stroke-miterlimit:4;stroke-opacity:1;stroke-dasharray:none;stroke-dashoffset:0"
       d="m 2971.2623,-501.75946 0,-102.85714 22.8571,0 22.8572,0 0,102.85714 0,102.85714 -22.8572,0 -22.8571,0 0,-102.85714 z"
       id="path2948" />
    <path
       style="fill:#b3b3b3;fill-opacity:1;stroke:#000000;stroke-width:2.85714293;stroke-miterlimit:4;stroke-opacity:1;stroke-dasharray:none;stroke-dashoffset:0"
       d="m 2922.6908,-501.75946 0,-102.85714 22.8572,0 22.8571,0 0,102.85714 0,102.85714 -22.8571,0 -22.8572,0 0,-102.85714 z"
       id="path2950" />
    <path
       style="fill:#b3b3b3;fill-opacity:1;stroke:#000000;stroke-width:2.85714293;stroke-miterlimit:4;stroke-opacity:1;stroke-dasharray:none;stroke-dashoffset:0"
       d="m 2871.2623,-501.75946 0,-102.85714 22.8571,0 22.8572,0 0,102.85714 0,102.85714 -22.8572,0 -22.8571,0 0,-102.85714 z"
       id="path2952" />
    <path
       style="fill:#b3b3b3;fill-opacity:1;stroke:#000000;stroke-width:2.85714293;stroke-miterlimit:4;stroke-opacity:1;stroke-dasharray:none;stroke-dashoffset:0"
       d="m 2822.6908,-501.75946 0,-102.85714 22.8572,0 22.8571,0 0,102.85714 0,102.85714 -22.8571,0 -22.8572,0 0,-102.85714 z"
       id="path2954" />
    <path
       style="fill:#b3b3b3;fill-opacity:1;stroke:#000000;stroke-width:2.85714293;stroke-miterlimit:4;stroke-opacity:1;stroke-dasharray:none;stroke-dashoffset:0"
       d="m 2771.2623,-501.75946 0,-102.85714 22.8571,0 22.8572,0 0,102.85714 0,102.85714 -22.8572,0 -22.8571,0 0,-102.85714 z"
       id="path2956" />
    <path
       style="fill:#b3b3b3;fill-opacity:1;stroke:#000000;stroke-width:2.85714293;stroke-miterlimit:4;stroke-opacity:1;stroke-dasharray:none;stroke-dashoffset:0"
       d="m 2722.6908,-501.75946 0,-102.85714 22.8572,0 22.8571,0 0,102.85714 0,102.85714 -22.8571,0 -22.8572,0 0,-102.85714 z"
       id="path2958" />
    <path
       style="fill:#b3b3b3;fill-opacity:1;stroke:#000000;stroke-width:2.85714293;stroke-miterlimit:4;stroke-opacity:1;stroke-dasharray:none;stroke-dashoffset:0"
       d="m 2671.2623,-501.75946 0,-102.85714 22.8571,0 22.8572,0 0,102.85714 0,102.85714 -22.8572,0 -22.8571,0 0,-102.85714 z"
       id="path2960" />
    <path
       style="fill:#b3b3b3;fill-opacity:1;stroke:#000000;stroke-width:2.85714293;stroke-miterlimit:4;stroke-opacity:1;stroke-dasharray:none;stroke-dashoffset:0"
       d="m 2622.6908,-501.75946 0,-102.85714 22.8572,0 22.8571,0 0,102.85714 0,102.85714 -22.8571,0 -22.8572,0 0,-102.85714 z"
       id="path2962" />
    <path
       style="fill:#b3b3b3;fill-opacity:1;stroke:#000000;stroke-width:2.85714293;stroke-miterlimit:4;stroke-opacity:1;stroke-dasharray:none;stroke-dashoffset:0"
       d="m 2571.2623,-501.75946 0,-102.85714 22.8571,0 22.8572,0 0,102.85714 0,102.85714 -22.8572,0 -22.8571,0 0,-102.85714 z"
       id="path2964" />
    <path
       style="fill:#b3b3b3;fill-opacity:1;stroke:#000000;stroke-width:2.85714293;stroke-miterlimit:4;stroke-opacity:1;stroke-dasharray:none;stroke-dashoffset:0"
       d="m 2522.6908,-501.75946 0,-102.85714 22.8572,0 22.8571,0 0,102.85714 0,102.85714 -22.8571,0 -22.8572,0 0,-102.85714 z"
       id="path2966" />
    <path
       style="fill:#b3b3b3;fill-opacity:1;stroke:#000000;stroke-width:2.85714293;stroke-miterlimit:4;stroke-opacity:1;stroke-dasharray:none;stroke-dashoffset:0"
       d="m 2471.2623,-501.75946 0,-102.85714 22.8571,0 22.8572,0 0,102.85714 0,102.85714 -22.8572,0 -22.8571,0 0,-102.85714 z"
       id="path2968" />
    <path
       style="fill:#b3b3b3;fill-opacity:1;stroke:#000000;stroke-width:2.85714293;stroke-miterlimit:4;stroke-opacity:1;stroke-dasharray:none;stroke-dashoffset:0"
       d="m 2422.6908,-501.75946 0,-102.85714 22.8572,0 22.8571,0 0,102.85714 0,102.85714 -22.8571,0 -22.8572,0 0,-102.85714 z"
       id="path2970" />
    <path
       style="fill:#b3b3b3;fill-opacity:1;stroke:#000000;stroke-width:2.85714293;stroke-miterlimit:4;stroke-opacity:1;stroke-dasharray:none;stroke-dashoffset:0"
       d="m 2371.2623,-501.75946 0,-102.85714 22.8571,0 22.8572,0 0,102.85714 0,102.85714 -22.8572,0 -22.8571,0 0,-102.85714 z"
       id="path2972" />
    <path
       style="fill:#b3b3b3;fill-opacity:1;stroke:#000000;stroke-width:2.85714293;stroke-miterlimit:4;stroke-opacity:1;stroke-dasharray:none;stroke-dashoffset:0"
       d="m 2322.6908,-501.75946 0,-102.85714 22.8572,0 22.8571,0 0,102.85714 0,102.85714 -22.8571,0 -22.8572,0 0,-102.85714 z"
       id="path2974" />
    <path
       style="fill:#b3b3b3;fill-opacity:1;stroke:#000000;stroke-width:2.85714293;stroke-miterlimit:4;stroke-opacity:1;stroke-dasharray:none;stroke-dashoffset:0"
       d="m 2271.2623,-501.75946 0,-102.85714 22.8571,0 22.8572,0 0,102.85714 0,102.85714 -22.8572,0 -22.8571,0 0,-102.85714 z"
       id="path2976" />
    <path
       style="fill:#b3b3b3;fill-opacity:1;stroke:#000000;stroke-width:2.85714293;stroke-miterlimit:4;stroke-opacity:1;stroke-dasharray:none;stroke-dashoffset:0"
       d="m 2222.6908,-501.75946 0,-102.85714 22.8572,0 22.8571,0 0,102.85714 0,102.85714 -22.8571,0 -22.8572,0 0,-102.85714 z"
       id="path2978" />
    <path
       style="fill:#b3b3b3;fill-opacity:1;stroke:#000000;stroke-width:2.85714293;stroke-miterlimit:4;stroke-opacity:1;stroke-dasharray:none;stroke-dashoffset:0"
       d="m 2171.2623,-501.75946 0,-102.85714 22.8571,0 22.8572,0 0,102.85714 0,102.85714 -22.8572,0 -22.8571,0 0,-102.85714 z"
       id="path2980" />
    <path
       style="fill:#b3b3b3;fill-opacity:1;stroke:#000000;stroke-width:2.85714293;stroke-miterlimit:4;stroke-opacity:1;stroke-dasharray:none;stroke-dashoffset:0"
       d="m 2122.6908,-501.75946 0,-102.85714 22.8572,0 22.8571,0 0,102.85714 0,102.85714 -22.8571,0 -22.8572,0 0,-102.85714 z"
       id="path2982" />
    <path
       style="fill:#b3b3b3;fill-opacity:1;stroke:#000000;stroke-width:2.85714293;stroke-miterlimit:4;stroke-opacity:1;stroke-dasharray:none;stroke-dashoffset:0"
       d="m 2071.2623,-501.75946 0,-102.85714 22.8571,0 22.8572,0 0,102.85714 0,102.85714 -22.8572,0 -22.8571,0 0,-102.85714 z"
       id="path2984" />
    <path
       style="fill:#b3b3b3;fill-opacity:1;stroke:#000000;stroke-width:2.85714293;stroke-miterlimit:4;stroke-opacity:1;stroke-dasharray:none;stroke-dashoffset:0"
       d="m 2022.6908,-501.75946 0,-102.85714 22.8572,0 22.8571,0 0,102.85714 0,102.85714 -22.8571,0 -22.8572,0 0,-102.85714 z"
       id="path2986" />
    <path
       style="fill:#b3b3b3;fill-opacity:1;stroke:#000000;stroke-width:2.85714293;stroke-miterlimit:4;stroke-opacity:1;stroke-dasharray:none;stroke-dashoffset:0"
       d="m 2021.1251,-501.75946 c 0,-57.35714 0.3813,-80.82143 0.8473,-52.14286 0.4661,28.67857 0.4661,75.60715 0,104.28572 -0.466,28.67857 -0.8473,5.21428 -0.8473,-52.14286 z"
       id="path2988" />
    <path
       style="fill:#b3b3b3;fill-opacity:1;stroke:#000000;stroke-width:2.85714293;stroke-miterlimit:4;stroke-opacity:1;stroke-dasharray:none;stroke-dashoffset:0"
       d="m 1971.2623,-501.75946 0,-102.85714 22.8571,0 22.8572,0 0,102.85714 0,102.85714 -22.8572,0 -22.8571,0 0,-102.85714 z"
       id="path2990" />
    <path
       style="fill:#b3b3b3;fill-opacity:1;stroke:#000000;stroke-width:2.85714293;stroke-miterlimit:4;stroke-opacity:1;stroke-dasharray:none;stroke-dashoffset:0"
       d="m 1922.6908,-501.75946 0,-102.85714 22.8572,0 22.8571,0 0,102.85714 0,102.85714 -22.8571,0 -22.8572,0 0,-102.85714 z"
       id="path2992" />
    <text
       xml:space="preserve"
       style="font-size:56px;font-style:normal;font-weight:normal;fill:#000000;fill-opacity:1;stroke:none;font-family:Bitstream Vera Sans"
       x="1528"
       y="-827.63782"
       id="text2994"><tspan
         sodipodi:role="line"
         id="tspan2996"
         x="1528"
         y="-827.63782">0</tspan></text>
    <text
       xml:space="preserve"
       style="font-size:56px;font-style:normal;font-weight:normal;fill:#000000;fill-opacity:1;stroke:none;font-family:Bitstream Vera Sans"
       x="3070"
       y="-827.63782"
       id="text2998"><tspan
         sodipodi:role="line"
         id="tspan3000"
         x="3070"
         y="-827.63782">31</tspan></text>
  </g>
</svg>
