<?xml version="1.0" encoding="UTF-8" standalone="no"?>
<!-- Created with Inkscape (http://www.inkscape.org/) -->

<svg
   xmlns:dc="http://purl.org/dc/elements/1.1/"
   xmlns:cc="http://creativecommons.org/ns#"
   xmlns:rdf="http://www.w3.org/1999/02/22-rdf-syntax-ns#"
   xmlns:svg="http://www.w3.org/2000/svg"
   xmlns="http://www.w3.org/2000/svg"
   xmlns:sodipodi="http://sodipodi.sourceforge.net/DTD/sodipodi-0.dtd"
   xmlns:inkscape="http://www.inkscape.org/namespaces/inkscape"
   width="1052.3622"
   height="744.09448"
   id="svg2"
   version="1.1"
   inkscape:version="0.47 r22583"
   sodipodi:docname="sistema.svg">
  <defs
     id="defs4"><inkscape:perspective
   sodipodi:type="inkscape:persp3d"
   inkscape:vp_x="0 : 526.18109 : 1"
   inkscape:vp_y="0 : 1000 : 0"
   inkscape:vp_z="744.09448 : 526.18109 : 1"
   inkscape:persp3d-origin="372.04724 : 350.78739 : 1"
   id="perspective10" />
<inkscape:perspective
   id="perspective3602"
   inkscape:persp3d-origin="0.5 : 0.33333333 : 1"
   inkscape:vp_z="1 : 0.5 : 1"
   inkscape:vp_y="0 : 1000 : 0"
   inkscape:vp_x="0 : 0.5 : 1"
   sodipodi:type="inkscape:persp3d" />
<inkscape:perspective
   id="perspective3602-5"
   inkscape:persp3d-origin="0.5 : 0.33333333 : 1"
   inkscape:vp_z="1 : 0.5 : 1"
   inkscape:vp_y="0 : 1000 : 0"
   inkscape:vp_x="0 : 0.5 : 1"
   sodipodi:type="inkscape:persp3d" />
<inkscape:perspective
   id="perspective3602-6"
   inkscape:persp3d-origin="0.5 : 0.33333333 : 1"
   inkscape:vp_z="1 : 0.5 : 1"
   inkscape:vp_y="0 : 1000 : 0"
   inkscape:vp_x="0 : 0.5 : 1"
   sodipodi:type="inkscape:persp3d" />
<inkscape:perspective
   id="perspective3602-2"
   inkscape:persp3d-origin="0.5 : 0.33333333 : 1"
   inkscape:vp_z="1 : 0.5 : 1"
   inkscape:vp_y="0 : 1000 : 0"
   inkscape:vp_x="0 : 0.5 : 1"
   sodipodi:type="inkscape:persp3d" />
<inkscape:perspective
   id="perspective3676"
   inkscape:persp3d-origin="0.5 : 0.33333333 : 1"
   inkscape:vp_z="1 : 0.5 : 1"
   inkscape:vp_y="0 : 1000 : 0"
   inkscape:vp_x="0 : 0.5 : 1"
   sodipodi:type="inkscape:persp3d" />
<inkscape:perspective
   id="perspective3711"
   inkscape:persp3d-origin="0.5 : 0.33333333 : 1"
   inkscape:vp_z="1 : 0.5 : 1"
   inkscape:vp_y="0 : 1000 : 0"
   inkscape:vp_x="0 : 0.5 : 1"
   sodipodi:type="inkscape:persp3d" />
<inkscape:perspective
   id="perspective3711-0"
   inkscape:persp3d-origin="0.5 : 0.33333333 : 1"
   inkscape:vp_z="1 : 0.5 : 1"
   inkscape:vp_y="0 : 1000 : 0"
   inkscape:vp_x="0 : 0.5 : 1"
   sodipodi:type="inkscape:persp3d" />
<inkscape:perspective
   id="perspective3711-5"
   inkscape:persp3d-origin="0.5 : 0.33333333 : 1"
   inkscape:vp_z="1 : 0.5 : 1"
   inkscape:vp_y="0 : 1000 : 0"
   inkscape:vp_x="0 : 0.5 : 1"
   sodipodi:type="inkscape:persp3d" />
<inkscape:perspective
   id="perspective3711-1"
   inkscape:persp3d-origin="0.5 : 0.33333333 : 1"
   inkscape:vp_z="1 : 0.5 : 1"
   inkscape:vp_y="0 : 1000 : 0"
   inkscape:vp_x="0 : 0.5 : 1"
   sodipodi:type="inkscape:persp3d" />
<inkscape:perspective
   id="perspective3802"
   inkscape:persp3d-origin="0.5 : 0.33333333 : 1"
   inkscape:vp_z="1 : 0.5 : 1"
   inkscape:vp_y="0 : 1000 : 0"
   inkscape:vp_x="0 : 0.5 : 1"
   sodipodi:type="inkscape:persp3d" />
<inkscape:perspective
   id="perspective3802-3"
   inkscape:persp3d-origin="0.5 : 0.33333333 : 1"
   inkscape:vp_z="1 : 0.5 : 1"
   inkscape:vp_y="0 : 1000 : 0"
   inkscape:vp_x="0 : 0.5 : 1"
   sodipodi:type="inkscape:persp3d" />
<inkscape:perspective
   id="perspective3802-9"
   inkscape:persp3d-origin="0.5 : 0.33333333 : 1"
   inkscape:vp_z="1 : 0.5 : 1"
   inkscape:vp_y="0 : 1000 : 0"
   inkscape:vp_x="0 : 0.5 : 1"
   sodipodi:type="inkscape:persp3d" />
<inkscape:perspective
   id="perspective3802-0"
   inkscape:persp3d-origin="0.5 : 0.33333333 : 1"
   inkscape:vp_z="1 : 0.5 : 1"
   inkscape:vp_y="0 : 1000 : 0"
   inkscape:vp_x="0 : 0.5 : 1"
   sodipodi:type="inkscape:persp3d" />
<inkscape:perspective
   id="perspective3728"
   inkscape:persp3d-origin="0.5 : 0.33333333 : 1"
   inkscape:vp_z="1 : 0.5 : 1"
   inkscape:vp_y="0 : 1000 : 0"
   inkscape:vp_x="0 : 0.5 : 1"
   sodipodi:type="inkscape:persp3d" />
<inkscape:perspective
   id="perspective3854"
   inkscape:persp3d-origin="0.5 : 0.33333333 : 1"
   inkscape:vp_z="1 : 0.5 : 1"
   inkscape:vp_y="0 : 1000 : 0"
   inkscape:vp_x="0 : 0.5 : 1"
   sodipodi:type="inkscape:persp3d" />
<inkscape:perspective
   id="perspective10-9"
   inkscape:persp3d-origin="372.04724 : 350.78739 : 1"
   inkscape:vp_z="744.09448 : 526.18109 : 1"
   inkscape:vp_y="0 : 1000 : 0"
   inkscape:vp_x="0 : 526.18109 : 1"
   sodipodi:type="inkscape:persp3d" />

 <style
   id="style3983"
   type="text/css">
   
    .str0 {stroke:#4D4948;stroke-width:0.0123919}
    .str1 {stroke:#838281;stroke-width:0.229479;stroke-linecap:round}
    .fil2 {fill:none}
    .fil0 {fill:#4D4948}
    .fil1 {fill:white;fill-rule:nonzero}
   
  </style>

  <inkscape:perspective
   id="perspective4018"
   inkscape:persp3d-origin="46.197994 : 20.564409 : 1"
   inkscape:vp_z="92.395988 : 30.846613 : 1"
   inkscape:vp_y="0 : 1000 : 0"
   inkscape:vp_x="0 : 30.846613 : 1"
   sodipodi:type="inkscape:persp3d" />
</defs>
  <sodipodi:namedview
     id="base"
     pagecolor="#ffffff"
     bordercolor="#666666"
     borderopacity="1.0"
     inkscape:pageopacity="0.0"
     inkscape:pageshadow="2"
     inkscape:zoom="1.08"
     inkscape:cx="517.81084"
     inkscape:cy="-67.685405"
     inkscape:document-units="px"
     inkscape:current-layer="layer1"
     showgrid="true"
     inkscape:window-width="1366"
     inkscape:window-height="693"
     inkscape:window-x="0"
     inkscape:window-y="24"
     inkscape:window-maximized="1">
    <inkscape:grid
       type="xygrid"
       id="grid2909" />
  </sodipodi:namedview>
  <metadata
     id="metadata7">
    <rdf:RDF>
      <cc:Work
         rdf:about="">
        <dc:format>image/svg+xml</dc:format>
        <dc:type
           rdf:resource="http://purl.org/dc/dcmitype/StillImage" />
        <dc:title></dc:title>
      </cc:Work>
    </rdf:RDF>
  </metadata>
  <g
     inkscape:label="Capa 1"
     inkscape:groupmode="layer"
     id="layer1"
     transform="translate(0,-308.2677)">
    <rect
       style="fill:#ffffff;fill-opacity:1;stroke:#000000;stroke-opacity:1"
       id="rect3592-87-2"
       width="165.71429"
       height="145.71428"
       x="44.285706"
       y="1146.6479" />
    <rect
       style="fill:#ffffff;fill-opacity:1;stroke:#000000;stroke-width:0.98698425;stroke-miterlimit:4;stroke-opacity:1;stroke-dasharray:none;stroke-dashoffset:0"
       id="rect3742"
       width="1280"
       height="1130"
       x="-120"
       y="-27.637817" />
    <rect
       style="fill:#999999;fill-opacity:1;stroke:#000000;stroke-opacity:1"
       id="rect2816"
       width="214.28572"
       height="197.14285"
       x="420"
       y="360.93362" />
    <rect
       style="fill:#b3b3b3;fill-opacity:1;stroke:#000000;stroke-opacity:1"
       id="rect3590"
       width="925.71429"
       height="94.285713"
       x="74.285713"
       y="315.52304"
       transform="translate(0,308.2677)" />
    <rect
       style="fill:#b3b3b3;fill-opacity:1;stroke:#000000;stroke-width:0.99014747;stroke-opacity:1"
       id="rect3592"
       width="165.71429"
       height="142.85712"
       x="45.714287"
       y="789.50507" />
    <rect
       style="fill:#cccccc;fill-opacity:1;stroke:#000000;stroke-width:0.99508595;stroke-opacity:1"
       id="rect3592-8"
       width="165.71429"
       height="144.28571"
       x="257.14285"
       y="788.07648" />
    <rect
       style="fill:#cccccc;fill-opacity:1;stroke:#000000;stroke-width:0.99113733;stroke-opacity:1"
       id="rect3592-87"
       width="165.71429"
       height="143.14288"
       x="468.57141"
       y="789.2193" />
    <rect
       style="fill:#cccccc;fill-opacity:1;stroke:#000000;stroke-opacity:1"
       id="rect3592-1"
       width="165.71429"
       height="145.71428"
       x="666.57147"
       y="787.21936" />
    <rect
       style="fill:#cccccc;fill-opacity:1;stroke:#000000;stroke-width:0.99508595;stroke-opacity:1"
       id="rect3592-2"
       width="165.71429"
       height="144.28571"
       x="862.85712"
       y="788.07648" />
    <text
       xml:space="preserve"
       style="font-size:40px;font-style:normal;font-weight:normal;fill:#000000;fill-opacity:1;stroke:none;font-family:Bitstream Vera Sans"
       x="434"
       y="456.36218"
       id="text3664"><tspan
         sodipodi:role="line"
         id="tspan3666"
         x="434"
         y="456.36218">NIOS II / f</tspan></text>
    <text
       xml:space="preserve"
       style="font-size:28px;font-style:normal;font-weight:normal;fill:#000000;fill-opacity:1;stroke:none;font-family:Bitstream Vera Sans"
       x="416"
       y="678.36218"
       id="text3693"><tspan
         sodipodi:role="line"
         id="tspan3695"
         x="416"
         y="678.36218">AVALON-MM BUS</tspan></text>
    <rect
       style="fill:#e6e6e6;fill-opacity:1;stroke:#000000;stroke-width:1.28285778000000006;stroke-opacity:1"
       id="rect3697"
       width="135.71715"
       height="49.71714"
       x="458.14142"
       y="506.5036" />
    <rect
       style="fill:#e6e6e6;fill-opacity:1;stroke:#000000;stroke-opacity:1"
       id="rect3701"
       width="136"
       height="50"
       x="60"
       y="482.09448"
       transform="translate(0,308.2677)" />
    <rect
       style="fill:#e6e6e6;fill-opacity:1;stroke:#000000;stroke-opacity:1"
       id="rect3701-1"
       width="136"
       height="50"
       x="272.82736"
       y="789.36218" />
    <rect
       style="fill:#e6e6e6;fill-opacity:1;stroke:#000000;stroke-opacity:1"
       id="rect3701-8"
       width="136"
       height="50"
       x="482"
       y="789.36218" />
    <rect
       style="fill:#e6e6e6;fill-opacity:1;stroke:#000000;stroke-opacity:1"
       id="rect3701-0"
       width="136"
       height="50"
       x="682"
       y="787.94849" />
    <rect
       style="fill:#e6e6e6;fill-opacity:1;stroke:#000000;stroke-opacity:1"
       id="rect3701-7"
       width="136"
       height="50"
       x="880"
       y="787.36218" />
    <path
       style="fill:none;stroke:#000000;stroke-width:1px;stroke-linecap:butt;stroke-linejoin:miter;stroke-opacity:1"
       d="m 546.88666,478.04151 0,-67.43704"
       id="path3770"
       transform="translate(0,308.2677)"
       inkscape:connector-type="polyline" />
    <path
       style="fill:none;stroke:#000000;stroke-width:1px;stroke-linecap:butt;stroke-linejoin:miter;stroke-opacity:1"
       d="m 746.42639,478.04151 0,-67.43704"
       id="path3772"
       transform="translate(0,308.2677)"
       inkscape:connector-type="polyline" />
    <path
       style="fill:none;stroke:#000000;stroke-width:1px;stroke-linecap:butt;stroke-linejoin:miter;stroke-opacity:1"
       d="m 943.19474,477.11772 0,-67.43704"
       id="path3774"
       transform="translate(0,308.2677)"
       inkscape:connector-type="polyline" />
    <path
       style="fill:none;stroke:#000000;stroke-width:1px;stroke-linecap:butt;stroke-linejoin:miter;stroke-opacity:1"
       d="m 524.71558,312.6822 0,-64.66565"
       id="path3778"
       transform="translate(0,308.2677)"
       inkscape:connector-type="polyline" />
    <text
       xml:space="preserve"
       style="font-size:16px;font-style:normal;font-weight:normal;text-align:center;text-anchor:middle;fill:#000000;fill-opacity:1;stroke:none;font-family:Bitstream Vera Sans"
       x="529.33453"
       y="527.64661"
       id="text3782"><tspan
         sodipodi:role="line"
         id="tspan3784"
         x="529.33453"
         y="527.64661">AVALON-MM</tspan><tspan
         sodipodi:role="line"
         x="529.33453"
         y="547.64661"
         id="tspan3786">MASTER</tspan></text>
    <text
       xml:space="preserve"
       style="font-size:16px;font-style:normal;font-weight:normal;text-align:center;text-anchor:middle;fill:#000000;fill-opacity:1;stroke:none;font-family:Bitstream Vera Sans"
       x="124.71233"
       y="807.55652"
       id="text3788"><tspan
         sodipodi:role="line"
         id="tspan3790"
         x="124.71233"
         y="807.55652">AVALON-MM</tspan><tspan
         sodipodi:role="line"
         x="124.71233"
         y="827.55652"
         id="tspan3792">SLAVE</tspan></text>
    <text
       xml:space="preserve"
       style="font-size:16px;font-style:normal;font-weight:normal;text-align:center;text-anchor:middle;fill:#000000;fill-opacity:1;stroke:none;font-family:Bitstream Vera Sans"
       x="341.60303"
       y="806.1521"
       id="text3788-2"><tspan
         sodipodi:role="line"
         id="tspan3790-3"
         x="341.60303"
         y="806.1521">AVALON-MM</tspan><tspan
         sodipodi:role="line"
         x="341.60303"
         y="826.1521"
         id="tspan3792-5">SLAVE</tspan></text>
    <text
       xml:space="preserve"
       style="font-size:16px;font-style:normal;font-weight:normal;text-align:center;text-anchor:middle;fill:#000000;fill-opacity:1;stroke:none;font-family:Bitstream Vera Sans"
       x="552.22827"
       y="806.1521"
       id="text3788-5"><tspan
         sodipodi:role="line"
         id="tspan3790-4"
         x="552.22827"
         y="806.1521">AVALON-MM</tspan><tspan
         sodipodi:role="line"
         x="552.22827"
         y="826.1521"
         id="tspan3792-8">SLAVE</tspan></text>
    <text
       xml:space="preserve"
       style="font-size:16px;font-style:normal;font-weight:normal;text-align:center;text-anchor:middle;fill:#000000;fill-opacity:1;stroke:none;font-family:Bitstream Vera Sans"
       x="749.92041"
       y="803.38074"
       id="text3788-9"><tspan
         sodipodi:role="line"
         id="tspan3790-39"
         x="749.92041"
         y="803.38074">AVALON-MM</tspan><tspan
         sodipodi:role="line"
         x="749.92041"
         y="823.38074"
         id="tspan3792-4">SLAVE</tspan></text>
    <text
       xml:space="preserve"
       style="font-size:16px;font-style:normal;font-weight:normal;text-align:center;text-anchor:middle;fill:#000000;fill-opacity:1;stroke:none;font-family:Bitstream Vera Sans"
       x="946.68878"
       y="805.22833"
       id="text3788-6"><tspan
         sodipodi:role="line"
         id="tspan3790-2"
         x="946.68878"
         y="805.22833">AVALON-MM</tspan><tspan
         sodipodi:role="line"
         x="946.68878"
         y="825.22833"
         id="tspan3792-6">SLAVE</tspan></text>
    <text
       xml:space="preserve"
       style="font-size:40px;font-style:normal;font-weight:normal;fill:#000000;fill-opacity:1;stroke:none;font-family:Bitstream Vera Sans"
       x="104.53191"
       y="880.69806"
       id="text3861"><tspan
         sodipodi:role="line"
         id="tspan3863"
         x="104.53191"
         y="880.69806"
         style="font-size:24px">PLL</tspan></text>
    <text
       xml:space="preserve"
       style="font-size:40px;font-style:normal;font-weight:normal;fill:#000000;fill-opacity:1;stroke:none;font-family:Bitstream Vera Sans"
       x="307.45264"
       y="884.08844"
       id="text3865"><tspan
         sodipodi:role="line"
         id="tspan3867"
         x="307.45264"
         y="884.08844"
         style="font-size:24px">Timer</tspan></text>
    <text
       xml:space="preserve"
       style="font-size:40px;font-style:normal;font-weight:normal;fill:#000000;fill-opacity:1;stroke:none;font-family:Bitstream Vera Sans"
       x="549.00171"
       y="874.99353"
       id="text3869"><tspan
         sodipodi:role="line"
         id="tspan3871"
         x="549.00171"
         y="874.99353"
         style="font-size:24px;text-align:center;text-anchor:middle">JTAG</tspan><tspan
         sodipodi:role="line"
         x="549.00171"
         y="904.99353"
         id="tspan3873"
         style="font-size:24px;text-align:center;text-anchor:middle">UART</tspan></text>
    <text
       xml:space="preserve"
       style="font-size:24;font-style:normal;font-weight:normal;text-align:center;text-anchor:middle;fill:#000000;fill-opacity:1;stroke:none;font-family:Bitstream Vera Sans"
       x="746.42639"
       y="871.2984"
       id="text3875"><tspan
         sodipodi:role="line"
         id="tspan3877"
         x="746.42639"
         y="871.2984">SDRAM</tspan><tspan
         sodipodi:role="line"
         x="746.42639"
         y="911.2984"
         id="tspan3879">Interface</tspan></text>
    <text
       xml:space="preserve"
       style="font-size:24px;font-style:normal;font-weight:normal;text-align:center;text-anchor:middle;fill:#000000;fill-opacity:1;stroke:none;font-family:Bitstream Vera Sans"
       x="944.11853"
       y="862.06976"
       id="text3881"><tspan
         sodipodi:role="line"
         x="947.93884"
         y="862.06976"
         id="tspan3885">Interfaz de </tspan><tspan
         sodipodi:role="line"
         x="944.11853"
         y="892.06976"
         id="tspan2884">acceso a la</tspan><tspan
         sodipodi:role="line"
         x="944.11853"
         y="922.06976"
         id="tspan2886">cabecera</tspan></text>
    <text
       xml:space="preserve"
       style="font-size:24px;font-style:normal;font-weight:normal;text-align:center;text-anchor:middle;fill:#000000;fill-opacity:1;stroke:none;font-family:Bitstream Vera Sans"
       x="128"
       y="1188.6479"
       id="text3895"><tspan
         sodipodi:role="line"
         id="tspan3897"
         x="128"
         y="1188.6479">50 MHZ</tspan><tspan
         sodipodi:role="line"
         x="128"
         y="1218.6479"
         id="tspan3762">clock</tspan></text>
    <path
       style="fill:none;stroke:#000000;stroke-width:1px;stroke-linecap:butt;stroke-linejoin:miter;stroke-opacity:1"
       d="m 126.55992,408.75688 0,72.05602"
       id="path2914"
       transform="translate(0,308.2677)"
       inkscape:connector-type="polyline" />
    <path
       style="fill:none;stroke:#000000;stroke-width:1px;stroke-linecap:butt;stroke-linejoin:miter;stroke-opacity:1"
       d="m 336.73371,408.76383 0,72.95897"
       id="path2922"
       transform="translate(0,308.2677)"
       inkscape:connector-type="polyline" />
    <rect
       style="fill:#cccccc;fill-opacity:1;stroke:#000000;stroke-width:1;stroke-miterlimit:4;stroke-opacity:1;stroke-dasharray:none;stroke-dashoffset:0"
       id="rect2911"
       width="210"
       height="60"
       x="420"
       y="-15.905518"
       transform="translate(0,308.2677)" />
    <text
       xml:space="preserve"
       style="font-size:24px;font-style:normal;font-weight:normal;fill:#000000;fill-opacity:1;stroke:none;font-family:Bitstream Vera Sans"
       x="503.26126"
       y="331.75681"
       id="text3685"><tspan
         sodipodi:role="line"
         id="tspan3687"
         x="503.26126"
         y="331.75681">HAL</tspan></text>
    <rect
       style="fill:#f2f2f2;fill-opacity:1;stroke:#000000;stroke-width:1;stroke-miterlimit:4;stroke-opacity:1;stroke-dasharray:none;stroke-dashoffset:0"
       id="rect3689"
       width="210"
       height="100"
       x="420"
       y="-125.90552"
       transform="translate(0,308.2677)" />
    <text
       xml:space="preserve"
       style="font-size:24px;font-style:normal;font-weight:normal;fill:#000000;fill-opacity:1;stroke:none;font-family:Bitstream Vera Sans"
       x="465.88019"
       y="244.20226"
       id="text3691"><tspan
         sodipodi:role="line"
         id="tspan3693"
         x="465.88019"
         y="244.20226">main.cpp</tspan></text>
    <rect
       y="12.362183"
       x="440"
       height="120"
       width="120"
       id="rect3700"
       style="fill:#f2f2f2;fill-opacity:1;stroke:#000000;stroke-width:1;stroke-miterlimit:4;stroke-opacity:1;stroke-dasharray:none;stroke-dashoffset:0" />
    <rect
       y="42.362183"
       x="470"
       height="120"
       width="120"
       id="rect3702"
       style="fill:#f2f2f2;fill-opacity:1;stroke:#000000;stroke-width:1;stroke-miterlimit:4;stroke-opacity:1;stroke-dasharray:none;stroke-dashoffset:0" />
    <text
       id="text3712"
       y="32.362183"
       x="446"
       style="font-size:20px;font-style:normal;font-weight:normal;fill:#000000;fill-opacity:1;stroke:none;font-family:Bitstream Vera Sans"
       xml:space="preserve"><tspan
         y="32.362183"
         x="446"
         id="tspan3714"
         sodipodi:role="line">iplookup.h</tspan></text>
    <text
       id="text3716"
       y="62.362183"
       x="484"
       style="font-size:20px;font-style:normal;font-weight:normal;fill:#000000;fill-opacity:1;stroke:none;font-family:Bitstream Vera Sans"
       xml:space="preserve"><tspan
         y="62.362183"
         x="484"
         id="tspan3718"
         sodipodi:role="line">iproute.h</tspan></text>
    <text
       xml:space="preserve"
       style="font-size:40px;font-style:normal;font-weight:normal;fill:#000000;fill-opacity:1;stroke:none;font-family:Bitstream Vera Sans"
       x="-100"
       y="16.362183"
       id="text3744"><tspan
         sodipodi:role="line"
         id="tspan3746"
         x="-100"
         y="16.362183">FPGA</tspan></text>
    <rect
       y="1146.6479"
       x="472"
       height="145.71428"
       width="165.71429"
       id="rect3748"
       style="fill:#ffffff;fill-opacity:1;stroke:#000000;stroke-opacity:1" />
    <rect
       style="fill:#ffffff;fill-opacity:1;stroke:#000000;stroke-opacity:1"
       id="rect3750"
       width="165.71429"
       height="145.71428"
       x="668.28571"
       y="1146.6479" />
    <text
       xml:space="preserve"
       style="font-size:24px;font-style:normal;font-weight:normal;fill:#000000;fill-opacity:1;stroke:none;font-family:Bitstream Vera Sans"
       x="554.63281"
       y="1182.6479"
       id="text3752"><tspan
         sodipodi:role="line"
         id="tspan3754"
         x="554.63281"
         y="1182.6479"
         style="text-align:center;text-anchor:middle">USB</tspan><tspan
         sodipodi:role="line"
         x="554.63281"
         y="1212.6479"
         id="tspan3756"
         style="text-align:center;text-anchor:middle">Blaster</tspan></text>
    <text
       xml:space="preserve"
       style="font-size:24px;font-style:normal;font-weight:normal;fill:#000000;fill-opacity:1;stroke:none;font-family:Bitstream Vera Sans"
       x="958.52252"
       y="889.44421"
       id="text3758"
       transform="translate(0,308.2677)"><tspan
         sodipodi:role="line"
         id="tspan3760"
         x="958.52252"
         y="889.44421" /></text>
    <text
       xml:space="preserve"
       style="font-size:24px;font-style:normal;font-weight:normal;text-align:center;text-anchor:middle;fill:#000000;fill-opacity:1;stroke:none;font-family:Bitstream Vera Sans"
       x="749.43921"
       y="1183.1694"
       id="text3764"><tspan
         sodipodi:role="line"
         id="tspan3766"
         x="749.43921"
         y="1183.1694">Memoria</tspan><tspan
         sodipodi:role="line"
         x="749.43921"
         y="1213.1694"
         id="tspan3768">SDRAM</tspan></text>
    <rect
       y="972.36218"
       x="864.28571"
       height="70"
       width="165.71429"
       id="rect3770"
       style="fill:#cccccc;fill-opacity:1;stroke:#000000;stroke-width:0.69310325;stroke-opacity:1" />
    <text
       xml:space="preserve"
       style="font-size:24px;font-style:normal;font-weight:normal;text-align:center;text-anchor:middle;fill:#000000;fill-opacity:1;stroke:none;font-family:Bitstream Vera Sans"
       x="949.85773"
       y="996.88293"
       id="text3772"><tspan
         sodipodi:role="line"
         id="tspan3774"
         x="949.85773"
         y="996.88293">Generador</tspan><tspan
         sodipodi:role="line"
         x="949.85773"
         y="1026.8829"
         id="tspan3776">de paquetes</tspan></text>
    <path
       style="fill:none;stroke:#000000;stroke-width:1px;stroke-linecap:butt;stroke-linejoin:miter;stroke-opacity:1"
       d="m 940,624.09448 0,40"
       id="path3787"
       transform="translate(0,308.2677)"
       inkscape:connector-type="polyline" />
    <path
       style="fill:none;stroke:#000000;stroke-width:1px;stroke-linecap:butt;stroke-linejoin:miter;stroke-opacity:1"
       d="m 125,839.09448 0,-215"
       id="path3789"
       transform="translate(0,308.2677)"
       inkscape:connector-type="polyline" />
    <path
       style="fill:none;stroke:#000000;stroke-width:1px;stroke-linecap:butt;stroke-linejoin:miter;stroke-opacity:1"
       d="m 550,624.09448 0,215"
       id="path3793"
       transform="translate(0,308.2677)"
       inkscape:connector-type="polyline" />
    <path
       style="fill:none;stroke:#000000;stroke-width:1px;stroke-linecap:butt;stroke-linejoin:miter;stroke-opacity:1"
       d="m 750,624.09448 0,215"
       id="path3795"
       transform="translate(0,308.2677)"
       inkscape:connector-type="polyline" />
    <g
       id="g4051"
       transform="translate(0,-22)">
      <path
         transform="translate(0,308.2677)"
         inkscape:connector-type="polyline"
         id="path3797"
         d="m 70,974.09448 10,0"
         style="fill:none;stroke:#000000;stroke-width:1px;stroke-linecap:butt;stroke-linejoin:miter;stroke-opacity:1" />
      <path
         transform="translate(0,308.2677)"
         inkscape:connector-type="polyline"
         id="path3799"
         d="m 80,974.09448 0,-15"
         style="fill:none;stroke:#000000;stroke-width:1px;stroke-linecap:butt;stroke-linejoin:miter;stroke-opacity:1;display:inline" />
      <path
         transform="translate(0,308.2677)"
         inkscape:connector-type="polyline"
         id="path3801"
         d="m 80,959.09448 15,0"
         style="fill:none;stroke:#000000;stroke-width:1px;stroke-linecap:butt;stroke-linejoin:miter;stroke-opacity:1" />
      <path
         transform="translate(0,308.2677)"
         inkscape:connector-type="polyline"
         id="path3803"
         d="m 95,959.09448 0,15"
         style="fill:none;stroke:#000000;stroke-width:1px;stroke-linecap:butt;stroke-linejoin:miter;stroke-opacity:1" />
      <path
         transform="translate(0,308.2677)"
         inkscape:connector-type="polyline"
         id="path3805"
         d="m 95,974.09448 10,0"
         style="fill:none;stroke:#000000;stroke-width:1px;stroke-linecap:butt;stroke-linejoin:miter;stroke-opacity:1" />
      <path
         transform="translate(0,308.2677)"
         style="fill:none;stroke:#000000;stroke-width:1px;stroke-linecap:butt;stroke-linejoin:miter;stroke-opacity:1"
         d="m 70,974.09448 10,0"
         id="path3807"
         inkscape:connector-type="polyline" />
      <path
         transform="translate(0,308.2677)"
         style="fill:none;stroke:#000000;stroke-width:1px;stroke-linecap:butt;stroke-linejoin:miter;stroke-opacity:1;display:inline"
         d="m 80,974.09448 0,-15"
         id="path3809"
         inkscape:connector-type="polyline" />
      <path
         transform="translate(0,308.2677)"
         style="fill:none;stroke:#000000;stroke-width:1px;stroke-linecap:butt;stroke-linejoin:miter;stroke-opacity:1"
         d="m 80,959.09448 15,0"
         id="path3811"
         inkscape:connector-type="polyline" />
      <path
         transform="translate(0,308.2677)"
         style="fill:none;stroke:#000000;stroke-width:1px;stroke-linecap:butt;stroke-linejoin:miter;stroke-opacity:1"
         d="m 95,959.09448 0,15"
         id="path3813"
         inkscape:connector-type="polyline" />
      <path
         transform="translate(0,308.2677)"
         style="fill:none;stroke:#000000;stroke-width:1px;stroke-linecap:butt;stroke-linejoin:miter;stroke-opacity:1"
         d="m 95,974.09448 10,0"
         id="path3815"
         inkscape:connector-type="polyline" />
      <path
         transform="translate(0,308.2677)"
         style="fill:none;stroke:#000000;stroke-width:1px;stroke-linecap:butt;stroke-linejoin:miter;stroke-opacity:1"
         d="m 70,974.09448 10,0"
         id="path3817"
         inkscape:connector-type="polyline" />
      <path
         transform="translate(0,308.2677)"
         style="fill:none;stroke:#000000;stroke-width:1px;stroke-linecap:butt;stroke-linejoin:miter;stroke-opacity:1;display:inline"
         d="m 80,974.09448 0,-15"
         id="path3819"
         inkscape:connector-type="polyline" />
      <path
         transform="translate(0,308.2677)"
         style="fill:none;stroke:#000000;stroke-width:1px;stroke-linecap:butt;stroke-linejoin:miter;stroke-opacity:1"
         d="m 80,959.09448 15,0"
         id="path3821"
         inkscape:connector-type="polyline" />
      <path
         transform="translate(0,308.2677)"
         style="fill:none;stroke:#000000;stroke-width:1px;stroke-linecap:butt;stroke-linejoin:miter;stroke-opacity:1"
         d="m 95,959.09448 0,15"
         id="path3823"
         inkscape:connector-type="polyline" />
      <path
         transform="translate(0,308.2677)"
         style="fill:none;stroke:#000000;stroke-width:1px;stroke-linecap:butt;stroke-linejoin:miter;stroke-opacity:1"
         d="m 95,974.09448 10,0"
         id="path3825"
         inkscape:connector-type="polyline" />
      <path
         transform="translate(0,308.2677)"
         inkscape:connector-type="polyline"
         id="path3827"
         d="m 70,974.09448 10,0"
         style="fill:none;stroke:#000000;stroke-width:1px;stroke-linecap:butt;stroke-linejoin:miter;stroke-opacity:1" />
      <path
         transform="translate(0,308.2677)"
         inkscape:connector-type="polyline"
         id="path3829"
         d="m 80,974.09448 0,-15"
         style="fill:none;stroke:#000000;stroke-width:1px;stroke-linecap:butt;stroke-linejoin:miter;stroke-opacity:1;display:inline" />
      <path
         transform="translate(0,308.2677)"
         inkscape:connector-type="polyline"
         id="path3831"
         d="m 80,959.09448 15,0"
         style="fill:none;stroke:#000000;stroke-width:1px;stroke-linecap:butt;stroke-linejoin:miter;stroke-opacity:1" />
      <path
         transform="translate(0,308.2677)"
         inkscape:connector-type="polyline"
         id="path3833"
         d="m 95,959.09448 0,15"
         style="fill:none;stroke:#000000;stroke-width:1px;stroke-linecap:butt;stroke-linejoin:miter;stroke-opacity:1" />
      <path
         transform="translate(0,308.2677)"
         inkscape:connector-type="polyline"
         id="path3835"
         d="m 95,974.09448 10,0"
         style="fill:none;stroke:#000000;stroke-width:1px;stroke-linecap:butt;stroke-linejoin:miter;stroke-opacity:1" />
      <path
         transform="translate(0,308.2677)"
         inkscape:connector-type="polyline"
         id="path3925"
         d="m 105,974.09448 0,-15"
         style="fill:none;stroke:#000000;stroke-width:1px;stroke-linecap:butt;stroke-linejoin:miter;stroke-opacity:1" />
      <path
         transform="translate(0,308.2677)"
         inkscape:connector-type="polyline"
         id="path3927"
         d="m 105,959.09448 15,0"
         style="fill:none;stroke:#000000;stroke-width:1px;stroke-linecap:butt;stroke-linejoin:miter;stroke-opacity:1" />
      <path
         transform="translate(0,308.2677)"
         inkscape:connector-type="polyline"
         id="path3929"
         d="m 120,959.09448 0,15"
         style="fill:none;stroke:#000000;stroke-width:1px;stroke-linecap:butt;stroke-linejoin:miter;stroke-opacity:1" />
      <path
         transform="translate(0,308.2677)"
         inkscape:connector-type="polyline"
         id="path3931"
         d="m 120,974.09448 10,0"
         style="fill:none;stroke:#000000;stroke-width:1px;stroke-linecap:butt;stroke-linejoin:miter;stroke-opacity:1" />
      <path
         transform="translate(0,308.2677)"
         inkscape:connector-type="polyline"
         id="path3933"
         d="m 130,974.09448 0,-15"
         style="fill:none;stroke:#000000;stroke-width:1px;stroke-linecap:butt;stroke-linejoin:miter;stroke-opacity:1" />
      <path
         transform="translate(0,308.2677)"
         inkscape:connector-type="polyline"
         id="path3935"
         d="m 130,959.09448 15,0"
         style="fill:none;stroke:#000000;stroke-width:1px;stroke-linecap:butt;stroke-linejoin:miter;stroke-opacity:1" />
      <path
         transform="translate(0,308.2677)"
         inkscape:connector-type="polyline"
         id="path3937"
         d="m 145,959.09448 0,15"
         style="fill:none;stroke:#000000;stroke-width:1px;stroke-linecap:butt;stroke-linejoin:miter;stroke-opacity:1" />
      <path
         transform="translate(0,308.2677)"
         inkscape:connector-type="polyline"
         id="path3939"
         d="m 145,974.09448 10,0"
         style="fill:none;stroke:#000000;stroke-width:1px;stroke-linecap:butt;stroke-linejoin:miter;stroke-opacity:1" />
      <path
         transform="translate(0,308.2677)"
         inkscape:connector-type="polyline"
         id="path3941"
         d="m 155,974.09448 0,-15"
         style="fill:none;stroke:#000000;stroke-width:1px;stroke-linecap:butt;stroke-linejoin:miter;stroke-opacity:1" />
      <path
         transform="translate(0,308.2677)"
         inkscape:connector-type="polyline"
         id="path3943"
         d="m 155,959.09448 15,0"
         style="fill:none;stroke:#000000;stroke-width:1px;stroke-linecap:butt;stroke-linejoin:miter;stroke-opacity:1" />
      <path
         transform="translate(0,308.2677)"
         inkscape:connector-type="polyline"
         id="path3945"
         d="m 170,959.09448 0,15"
         style="fill:none;stroke:#000000;stroke-width:1px;stroke-linecap:butt;stroke-linejoin:miter;stroke-opacity:1" />
      <path
         transform="translate(0,308.2677)"
         inkscape:connector-type="polyline"
         id="path3947"
         d="m 170,974.09448 10,0"
         style="fill:none;stroke:#000000;stroke-width:1px;stroke-linecap:butt;stroke-linejoin:miter;stroke-opacity:1" />
    </g>
    <g
       transform="matrix(0.19758864,0,0,0.15791941,490.28974,1194.2364)"
       id="layer1-2"
       inkscape:label="Layer 1">
      <g
         transform="translate(2.0000031,0)"
         id="g6274">
        <path
           sodipodi:type="arc"
           style="fill:#000000;stroke:#000000"
           id="path5478"
           sodipodi:cx="337.89603"
           sodipodi:cy="546.78082"
           sodipodi:rx="21.718279"
           sodipodi:ry="21.718279"
           d="m 359.61431,546.78082 c 0,11.99468 -9.72361,21.71828 -21.71828,21.71828 -11.99468,0 -21.71828,-9.7236 -21.71828,-21.71828 0,-11.99467 9.7236,-21.71828 21.71828,-21.71828 11.99467,0 21.71828,9.72361 21.71828,21.71828 z"
           transform="matrix(1.1251997,0,0,1.1251997,-55.200497,-77.972998)" />
        <g
           id="g6262">
          <path
             id="path5482"
             d="m 326.56985,443.61654 41.14723,-71.26909 0,-76.97161"
             style="fill:none;stroke:#000000;stroke-width:15;stroke-linecap:butt;stroke-linejoin:round;stroke-miterlimit:4;stroke-opacity:1;stroke-dasharray:none" />
          <rect
             y="281.10931"
             x="348.41827"
             height="39.385468"
             width="36.802814"
             id="rect6256"
             style="fill:#000000;stroke:#000000;stroke-width:10;stroke-linejoin:miter;stroke-miterlimit:4;stroke-dasharray:none" />
        </g>
        <g
           id="g6266">
          <path
             id="path6254"
             d="m 326.56985,497.18867 -48.1514,-83.40067 0,-69.97708"
             style="fill:none;stroke:#000000;stroke-width:15;stroke-linecap:butt;stroke-linejoin:round;stroke-miterlimit:4;stroke-opacity:1;stroke-dasharray:none" />
          <path
             transform="matrix(1.1251997,0,0,1.1251997,-101.33187,-275.82988)"
             d="m 359.61431,546.78082 c 0,11.99468 -9.72361,21.71828 -21.71828,21.71828 -11.99468,0 -21.71828,-9.7236 -21.71828,-21.71828 0,-11.99467 9.7236,-21.71828 21.71828,-21.71828 11.99467,0 21.71828,9.72361 21.71828,21.71828 z"
             sodipodi:ry="21.718279"
             sodipodi:rx="21.718279"
             sodipodi:cy="546.78082"
             sodipodi:cx="337.89603"
             id="path6258"
             style="fill:#000000;stroke:#000000;stroke-width:0.9998225;stroke-miterlimit:4;stroke-dasharray:none"
             sodipodi:type="arc" />
        </g>
        <g
           id="g6270">
          <path
             id="path5480"
             d="m 325.49988,544.76473 0,-335.00061"
             style="fill:#000000;fill-rule:evenodd;stroke:#000000;stroke-width:14.99975014px;stroke-linecap:butt;stroke-linejoin:miter;stroke-opacity:1" />
          <path
             id="path6260"
             d="m 325.83599,191.16704 -26.441,45.79716 52.86013,0 -26.41913,-45.79716 z"
             style="fill:#000000;fill-rule:evenodd;stroke:#000000;stroke-width:8;stroke-linecap:butt;stroke-linejoin:miter;stroke-miterlimit:4;stroke-opacity:1;stroke-dasharray:none" />
        </g>
      </g>
    </g>
    <g
       id="Diagram"
       transform="matrix(21.788321,0,0,21.788321,702.63597,1222.3719)">
  <metadata
   id="CorelCorpID_0Corel-Layer" />

  <g
   id="_46320264">
   <path
   d="m 0.331444,0.44006 3.57773,-6.505e-5 c 0.179147,0 0.325248,0.146101 0.325248,0.325248 l 0,1.30099005 c 0,0.179147 -0.146101,0.325313 -0.325248,0.325313 l -3.57773,-6.51e-5 c -0.179147,0 -0.325248,-0.146101 -0.325248,-0.325248 l 0,-1.30099 c 0,-0.179147 0.146101,-0.325183 0.325248,-0.325183 z"
   class="fil0 str0"
   id="_89705936"
   style="fill:#4d4948;stroke:#4d4948;stroke-width:0.0123919" />

   <path
   d="m 1.50149,1.82783 c 0,0.00507 -9.107e-4,0.00917 -0.0028,0.01262 C 1.49687,1.8437 1.49277,1.84643 1.485875,1.84871 1.479235,1.85105 1.469352,1.85261 1.456277,1.85352 1.443397,1.8544307 1.425769,1.85495 1.403262,1.85495 1.384463,1.85495 1.369306,1.8544296 1.358248,1.85352 1.347059,1.8526093 1.338083,1.85079 1.331643,1.84851 1.325203,1.84597 1.32065,1.84279 1.317917,1.83908 1.315117,1.83518 1.312847,1.83062 1.311017,1.825289 L 1.233218,1.630921 C 1.223788,1.608934 1.214614,1.589419 1.205637,1.572441 1.196467,1.555463 1.186642,1.541217 1.175584,1.529769 1.164591,1.518255 1.151971,1.509799 1.137725,1.503814 1.123284,1.498094 1.106761,1.495094 1.087962,1.495094 l -0.055097,0 0,0.331623 c 0,0.00436 -0.00163,0.00846 -0.00436,0.011904 -0.00299,0.00364 -0.00781,0.00664 -0.014441,0.00872 -0.0069,0.00228 -0.0158721,0.00416 -0.0271257,0.00553 -0.0109934,0.00137 -0.0254344,0.00208 -0.0428677,0.00208 -0.0169779,0 -0.0312238,-7.156e-4 -0.0426725,-0.00208 C 0.8898843,1.851501 0.8807123,1.849621 0.8740773,1.847341 0.8673773,1.845261 0.8625635,1.842271 0.8600266,1.838621 0.8572946,1.835171 0.8559286,1.831071 0.8559286,1.826717 l 0,-0.790157 c 0,-0.01971 0.005074,-0.033956 0.0151566,-0.0426725 0.0100827,-0.008717 0.0225072,-0.013075 0.0374035,-0.013075 l 0.225137,0 c 0.022898,0 0.041762,4.5535e-4 0.056463,0.001366 0.014896,9.1069e-4 0.028166,0.002082 0.040331,0.003252 0.034932,0.005009 0.066351,0.0135303 0.094582,0.0256946 0.027971,0.012164 0.051649,0.027776 0.071164,0.047226 0.01945,0.019515 0.034411,0.042738 0.044689,0.069343 0.010343,0.026605 0.015417,0.057374 0.015417,0.091785 0,0.029142 -0.00371,0.055748 -0.011058,0.079621 -0.00729,0.024133 -0.018344,0.04547 -0.032525,0.064269 -0.014506,0.018799 -0.032134,0.035127 -0.053276,0.049112 -0.020881,0.013791 -0.044949,0.024979 -0.071815,0.033501 0.013075,0.00644 0.025239,0.013986 0.036688,0.022962 0.011254,0.00891 0.022052,0.01971 0.032134,0.03259 0.010083,0.012815 0.019775,0.027256 0.028687,0.043583 0.00898,0.016523 0.017694,0.034867 0.02615,0.055552 l 0.073246,0.171406 c 0.0069,0.016978 0.011254,0.029598 0.01353,0.037403 0.00228,0.00781 0.00345,0.013986 0.00345,0.018344 z M 1.273361,1.237635 c 0,-0.028687 -0.00644,-0.05282 -0.019515,-0.07253 C 1.241031,1.14533 1.219695,1.131344 1.190097,1.123343 1.181117,1.121003 1.171037,1.119183 1.159524,1.118073 1.148075,1.116643 1.132268,1.115993 1.112038,1.115993 l -0.079165,0 0,0.246668 0.089964,0 c 0.025239,0 0.047031,-0.00299 0.06583,-0.00917 C 1.207531,1.347511 1.223338,1.33905 1.235763,1.328057 1.248383,1.316999 1.25775,1.303924 1.263929,1.288767 1.270369,1.273415 1.273359,1.256437 1.273359,1.237638 z m 1.07052,0.547327 c 0.00533,0.016002 0.00878,0.028882 0.010148,0.038314 0.00111,0.00937 -4.553e-4,0.016523 -0.00553,0.021076 -0.00481,0.00481 -0.01353,0.00761 -0.02615,0.00872 -0.01262,0.00117 -0.029858,0.00189 -0.051845,0.00189 -0.022767,0 -0.040656,-5.204e-4 -0.053471,-0.00117 -0.01262,-7.156e-4 -0.022507,-0.00208 -0.029142,-0.0039 -0.0067,-0.00208 -0.011514,-0.00481 -0.014246,-0.00852 -0.00254,-0.00364 -0.00481,-0.00826 -0.0067,-0.014181 l -0.05848,-0.174658 -0.326809,0 -0.055032,0.17004 c -0.00189,0.00618 -0.00416,0.011449 -0.00716,0.015807 -0.00273,0.00416 -0.00755,0.00761 -0.013986,0.010148 -0.00644,0.00228 -0.015807,0.0041 -0.027516,0.00501 -0.011969,9.107e-4 -0.027581,0.00143 -0.046836,0.00143 -0.020686,0 -0.036688,-7.155e-4 -0.048397,-0.00208 C 1.57102,1.851518 1.562954,1.848268 1.558596,1.842998 1.554046,1.837928 1.552416,1.830639 1.553786,1.821206 1.555156,1.811776 1.558596,1.799154 1.563869,1.783542 L 1.832133,1.011794 c 0.0028,-0.00755 0.00579,-0.0137255 0.00943,-0.0186042 0.00364,-0.004553 0.00943,-0.008261 0.017238,-0.0107332 0.00781,-0.002342 0.018539,-0.003903 0.03259,-0.004619 0.013726,-6.505e-4 0.03233,-0.001171 0.055032,-0.001171 0.02641,0 0.047486,5.204e-4 0.063358,0.001171 0.015612,7.1555e-4 0.027776,0.002277 0.036493,0.004619 0.00872,0.002472 0.015157,0.00618 0.018799,0.0112536 0.0039,0.004814 0.00709,0.0114487 0.00989,0.0201654 l 0.268915,0.771098 z m -0.399535,-0.638006 -6.505e-4,0 -0.123009,0.369677 0.246668,0 -0.123009,-0.369677 z m 1.53504,0.679768 c 0,0.00436 -0.00117,0.00846 -0.00364,0.011904 -0.00254,0.00364 -0.0069,0.00664 -0.013595,0.00872 -0.00637,0.00228 -0.015092,0.00416 -0.025695,0.00553 -0.010798,0.00137 -0.024524,0.00208 -0.041046,0.00208 -0.016067,0 -0.029598,-7.155e-4 -0.040396,-0.00208 C 3.344216,1.851508 3.335759,1.849628 3.329515,1.847348 3.323145,1.845268 3.318717,1.842278 3.315985,1.838628 3.313255,1.835178 3.312085,1.831078 3.312085,1.826724 l 0,-0.708 -0.00137,0 -0.252197,0.707284 c -0.00182,0.00572 -0.00462,0.010538 -0.00872,0.014441 -0.00416,0.00371 -0.00963,0.0067 -0.016523,0.00898 -0.0069,0.00228 -0.015872,0.00364 -0.026605,0.00436 -0.010603,6.505e-4 -0.023678,0.00117 -0.038835,0.00117 -0.015352,0 -0.028231,-7.156e-4 -0.038965,-0.00189 C 2.918072,1.851959 2.909095,1.850339 2.9022,1.847799 2.89537,1.845259 2.889841,1.842269 2.885677,1.838629 c -0.0039,-0.00345 -0.00664,-0.00781 -0.008,-0.01262 l -0.243481,-0.707284 -0.00117,0 0,0.708 c 0,0.00436 -0.00137,0.00846 -0.0039,0.011904 -0.00228,0.00364 -0.00683,0.00664 -0.013726,0.00872 -0.0067,0.00228 -0.015157,0.00416 -0.025695,0.00553 -0.010603,0.00137 -0.024133,0.00208 -0.040851,0.00208 -0.016067,0 -0.029598,-7.155e-4 -0.040201,-0.00208 C 2.497855,1.851509 2.489138,1.849629 2.482763,1.847349 2.476063,1.845269 2.471705,1.842279 2.469168,1.838629 2.466698,1.835179 2.465528,1.831079 2.465528,1.826725 l 0,-0.775196 c 0,-0.022962 0.00598,-0.040396 0.018149,-0.0525601 C 2.495841,0.9868046 2.511908,0.9808201 2.532074,0.9808201 l 0.115658,0 c 0.020686,0 0.038314,0.001626 0.053015,0.005074 0.014896,0.003448 0.027776,0.008912 0.038314,0.0167177 0.010798,0.00781 0.019775,0.018149 0.027061,0.030964 0.00716,0.01288 0.013335,0.028492 0.018864,0.047291 l 0.188188,0.51838 0.00273,0 0.194824,-0.517014 c 0.00598,-0.018799 0.012425,-0.034606 0.019255,-0.047746 0.0069,-0.012815 0.014961,-0.023353 0.024133,-0.031419 0.00917,-0.008261 0.020165,-0.0137255 0.03259,-0.0171731 0.01262,-0.003448 0.027321,-0.005074 0.043843,-0.005074 l 0.118846,0 c 0.012164,0 0.022702,0.001626 0.031419,0.004619 0.00872,0.003187 0.015872,0.007741 0.021336,0.0139857 0.00579,0.005919 0.00989,0.0132701 0.01288,0.0219868 0.00299,0.00872 0.00436,0.018864 0.00436,0.030118 l 0,0.775196 z"
   class="fil1"
   id="_48856928"
   style="fill:#ffffff;fill-rule:nonzero" />

   <line
   y2="0.114747"
   x2="0.65669203"
   y1="0.43999499"
   x1="0.65669203"
   class="fil2 str1"
   id="_89838728"
   style="fill:none;stroke:#838281;stroke-width:0.229479;stroke-linecap:round" />

   <line
   y2="0.114747"
   x2="0.98220003"
   y1="0.43999499"
   x1="0.98220003"
   class="fil2 str1"
   id="_90529672"
   style="fill:none;stroke:#838281;stroke-width:0.229479;stroke-linecap:round" />

   <line
   y2="0.114747"
   x2="1.63244"
   y1="0.43999499"
   x1="1.63244"
   class="fil2 str1"
   id="_88873184"
   style="fill:none;stroke:#838281;stroke-width:0.229479;stroke-linecap:round" />

   <line
   y2="0.114747"
   x2="1.3074501"
   y1="0.43999499"
   x1="1.3074501"
   class="fil2 str1"
   id="_89047400"
   style="fill:none;stroke:#838281;stroke-width:0.229479;stroke-linecap:round" />

   <line
   y2="0.114747"
   x2="1.95794"
   y1="0.43999499"
   x1="1.95794"
   class="fil2 str1"
   id="_48795480"
   style="fill:none;stroke:#838281;stroke-width:0.229479;stroke-linecap:round" />

   <line
   y2="0.114747"
   x2="2.28319"
   y1="0.43999499"
   x1="2.28319"
   class="fil2 str1"
   id="_87697416"
   style="fill:none;stroke:#838281;stroke-width:0.229479;stroke-linecap:round" />

   <line
   y2="0.114747"
   x2="0.33157399"
   y1="0.43999499"
   x1="0.33157399"
   class="fil2 str1"
   id="_87460568"
   style="fill:none;stroke:#838281;stroke-width:0.229479;stroke-linecap:round" />

   <line
   y2="0.114747"
   x2="2.6114299"
   y1="0.43999499"
   x1="2.6114299"
   class="fil2 str1"
   id="_88111800"
   style="fill:none;stroke:#838281;stroke-width:0.229479;stroke-linecap:round" />

   <line
   y2="0.114747"
   x2="2.93694"
   y1="0.43999499"
   x1="2.93694"
   class="fil2 str1"
   id="_89779384"
   style="fill:none;stroke:#838281;stroke-width:0.229479;stroke-linecap:round" />

   <line
   y2="0.114747"
   x2="3.25881"
   y1="0.43999499"
   x1="3.25881"
   class="fil2 str1"
   id="_91195720"
   style="fill:none;stroke:#838281;stroke-width:0.229479;stroke-linecap:round" />

   <line
   y2="0.114747"
   x2="3.5840499"
   y1="0.43999499"
   x1="3.5840499"
   class="fil2 str1"
   id="_89709768"
   style="fill:none;stroke:#838281;stroke-width:0.229479;stroke-linecap:round" />

   <line
   y2="0.114747"
   x2="3.9093001"
   y1="0.43999499"
   x1="3.9093001"
   class="fil2 str1"
   id="_48343384"
   style="fill:none;stroke:#838281;stroke-width:0.229479;stroke-linecap:round" />

   <line
   y2="2.39148"
   x2="0.65643197"
   y1="2.7167301"
   x1="0.65643197"
   class="fil2 str1"
   id="_88726520"
   style="fill:none;stroke:#838281;stroke-width:0.229479;stroke-linecap:round" />

   <line
   y2="2.39148"
   x2="0.98193997"
   y1="2.7167301"
   x1="0.98193997"
   class="fil2 str1"
   id="_89863896"
   style="fill:none;stroke:#838281;stroke-width:0.229479;stroke-linecap:round" />

   <line
   y2="2.39148"
   x2="1.63218"
   y1="2.7167301"
   x1="1.63218"
   class="fil2 str1"
   id="_89052328"
   style="fill:none;stroke:#838281;stroke-width:0.229479;stroke-linecap:round" />

   <line
   y2="2.39148"
   x2="1.3071899"
   y1="2.7167301"
   x1="1.3071899"
   class="fil2 str1"
   id="_90525016"
   style="fill:none;stroke:#838281;stroke-width:0.229479;stroke-linecap:round" />

   <line
   y2="2.39148"
   x2="1.95768"
   y1="2.7167301"
   x1="1.95768"
   class="fil2 str1"
   id="_88786464"
   style="fill:none;stroke:#838281;stroke-width:0.229479;stroke-linecap:round" />

   <line
   y2="2.39148"
   x2="2.2829299"
   y1="2.7167301"
   x1="2.2829299"
   class="fil2 str1"
   id="_48928224"
   style="fill:none;stroke:#838281;stroke-width:0.229479;stroke-linecap:round" />

   <line
   y2="2.39148"
   x2="0.331314"
   y1="2.7167301"
   x1="0.331314"
   class="fil2 str1"
   id="_90405880"
   style="fill:none;stroke:#838281;stroke-width:0.229479;stroke-linecap:round" />

   <line
   y2="2.39148"
   x2="2.6111701"
   y1="2.7167301"
   x1="2.6111701"
   class="fil2 str1"
   id="_88963376"
   style="fill:none;stroke:#838281;stroke-width:0.229479;stroke-linecap:round" />

   <line
   y2="2.39148"
   x2="2.9366801"
   y1="2.7167301"
   x1="2.9366801"
   class="fil2 str1"
   id="_90071336"
   style="fill:none;stroke:#838281;stroke-width:0.229479;stroke-linecap:round" />

   <line
   y2="2.39148"
   x2="3.2585499"
   y1="2.7167301"
   x1="3.2585499"
   class="fil2 str1"
   id="_87188792"
   style="fill:none;stroke:#838281;stroke-width:0.229479;stroke-linecap:round" />

   <line
   y2="2.39148"
   x2="3.5837901"
   y1="2.7167301"
   x1="3.5837901"
   class="fil2 str1"
   id="_89604440"
   style="fill:none;stroke:#838281;stroke-width:0.229479;stroke-linecap:round" />

   <line
   y2="2.39148"
   x2="3.90904"
   y1="2.7167301"
   x1="3.90904"
   class="fil2 str1"
   id="_89011904"
   style="fill:none;stroke:#838281;stroke-width:0.229479;stroke-linecap:round" />

  </g>

 </g>
  </g>
</svg>
