<?xml version="1.0" encoding="UTF-8" standalone="no"?>
<!-- Created with Inkscape (http://www.inkscape.org/) -->

<svg
   xmlns:dc="http://purl.org/dc/elements/1.1/"
   xmlns:cc="http://creativecommons.org/ns#"
   xmlns:rdf="http://www.w3.org/1999/02/22-rdf-syntax-ns#"
   xmlns:svg="http://www.w3.org/2000/svg"
   xmlns="http://www.w3.org/2000/svg"
   xmlns:sodipodi="http://sodipodi.sourceforge.net/DTD/sodipodi-0.dtd"
   xmlns:inkscape="http://www.inkscape.org/namespaces/inkscape"
   id="svg2"
   version="1.1"
   inkscape:version="0.47 r22583"
   width="743.75"
   height="1052.5"
   xml:space="preserve"
   sodipodi:docname="trie.eps"><metadata
     id="metadata8"><rdf:RDF><cc:Work
         rdf:about=""><dc:format>image/svg+xml</dc:format><dc:type
           rdf:resource="http://purl.org/dc/dcmitype/StillImage" /><dc:title></dc:title></cc:Work></rdf:RDF></metadata><defs
     id="defs6"><inkscape:perspective
       sodipodi:type="inkscape:persp3d"
       inkscape:vp_x="0 : 0.5 : 1"
       inkscape:vp_y="0 : 1000 : 0"
       inkscape:vp_z="1 : 0.5 : 1"
       inkscape:persp3d-origin="0.5 : 0.33333333 : 1"
       id="perspective10" /></defs><sodipodi:namedview
     pagecolor="#ffffff"
     bordercolor="#666666"
     borderopacity="1"
     objecttolerance="10"
     gridtolerance="10"
     guidetolerance="10"
     inkscape:pageopacity="0"
     inkscape:pageshadow="2"
     inkscape:window-width="1366"
     inkscape:window-height="693"
     id="namedview4"
     showgrid="false"
     inkscape:zoom="0.22422803"
     inkscape:cx="371.875"
     inkscape:cy="526.25"
     inkscape:window-x="0"
     inkscape:window-y="24"
     inkscape:window-maximized="1"
     inkscape:current-layer="g12" /><g
     id="g12"
     inkscape:groupmode="layer"
     inkscape:label="ink_ext_XXXXXX"
     transform="matrix(1.25,0,0,-1.25,0,1052.5)"><g
       id="g14"
       transform="scale(0.1,0.1)"><path
         d="m 2003.98,4324.02 720,0 0,480 -720,0 0,-480 z"
         style="fill:#cccccc;fill-opacity:1;fill-rule:nonzero;stroke:none"
         id="path16" /><path
         d="m 2003.98,4324.02 720,0 0,480 -720,0 0,-480 z"
         style="fill:none;stroke:#000000;stroke-opacity:1;stroke-width:8;stroke-linecap:butt;stroke-linejoin:miter;stroke-miterlimit:4;stroke-dasharray:48,8;stroke-dashoffset:0"
         id="path18" /><path
         d="m 803.98,3604.02 720,0 0,480 -720,0 0,-480 z"
         style="fill:#cccccc;fill-opacity:1;fill-rule:nonzero;stroke:none"
         id="path20" /><path
         d="m 803.98,3604.02 720,0 0,480 -720,0 0,-480 z"
         style="fill:none;stroke:#000000;stroke-opacity:1;stroke-width:8;stroke-linecap:butt;stroke-linejoin:miter;stroke-miterlimit:4;stroke-dasharray:48,8;stroke-dashoffset:0"
         id="path22" /><path
         d="m 3203.98,3604.02 720,0 0,480 -720,0 0,-480 z"
         style="fill:#cccccc;fill-opacity:1;fill-rule:nonzero;stroke:none"
         id="path24" /><path
         d="m 3203.98,3604.02 720,0 0,480 -720,0 0,-480 z"
         style="fill:none;stroke:#000000;stroke-opacity:1;stroke-width:8;stroke-linecap:butt;stroke-linejoin:miter;stroke-miterlimit:4;stroke-dasharray:48,8;stroke-dashoffset:0"
         id="path26" /><path
         d="m 2003.98,2884.02 720,0 0,480 -720,0 0,-480 z"
         style="fill:#cccccc;fill-opacity:1;fill-rule:nonzero;stroke:none"
         id="path28" /><path
         d="m 2003.98,2884.02 720,0 0,480 -720,0 0,-480 z"
         style="fill:none;stroke:#000000;stroke-opacity:1;stroke-width:8;stroke-linecap:butt;stroke-linejoin:miter;stroke-miterlimit:4;stroke-dasharray:48,8;stroke-dashoffset:0"
         id="path30" /><path
         d="m 1443.98,2164.02 720,0 0,480 -720,0 0,-480 z"
         style="fill:#cccccc;fill-opacity:1;fill-rule:nonzero;stroke:none"
         id="path32" /><path
         d="m 1443.98,2164.02 720,0 0,480 -720,0 0,-480 z"
         style="fill:none;stroke:#000000;stroke-opacity:1;stroke-width:8;stroke-linecap:butt;stroke-linejoin:miter;stroke-miterlimit:4;stroke-dasharray:48,8;stroke-dashoffset:0"
         id="path34" /><path
         d="m 963.98,1444.02 720,0 0,480 -720,0 0,-480 z"
         style="fill:#cccccc;fill-opacity:1;fill-rule:nonzero;stroke:none"
         id="path36" /><path
         d="m 963.98,1444.02 720,0 0,480 -720,0 0,-480 z"
         style="fill:none;stroke:#000000;stroke-opacity:1;stroke-width:8;stroke-linecap:butt;stroke-linejoin:miter;stroke-miterlimit:4;stroke-dasharray:48,8;stroke-dashoffset:0"
         id="path38" /><path
         d="m 483.98,724.02 720,0 0,480 -720,0 0,-480 z"
         style="fill:#cccccc;fill-opacity:1;fill-rule:nonzero;stroke:none"
         id="path40" /><path
         d="m 483.98,724.02 720,0 0,480 -720,0 0,-480 z"
         style="fill:none;stroke:#000000;stroke-opacity:1;stroke-width:8;stroke-linecap:butt;stroke-linejoin:miter;stroke-miterlimit:4;stroke-dasharray:48,8;stroke-dashoffset:0"
         id="path42" /><path
         d="m 3.98047,4.01953 720,0 0,480 -720,0 0,-480 z"
         style="fill:#cccccc;fill-opacity:1;fill-rule:nonzero;stroke:none"
         id="path44" /><path
         d="m 3.98047,4.01953 720,0 0,480 -720,0 0,-480 z"
         style="fill:none;stroke:#000000;stroke-opacity:1;stroke-width:8;stroke-linecap:butt;stroke-linejoin:miter;stroke-miterlimit:4;stroke-dasharray:48,8;stroke-dashoffset:0"
         id="path46" /><path
         d="m 4403.98,2884.02 720,0 0,480 -720,0 0,-480 z"
         style="fill:#cccccc;fill-opacity:1;fill-rule:nonzero;stroke:none"
         id="path48" /><path
         d="m 4403.98,2884.02 720,0 0,480 -720,0 0,-480 z"
         style="fill:none;stroke:#000000;stroke-opacity:1;stroke-width:8;stroke-linecap:butt;stroke-linejoin:miter;stroke-miterlimit:4;stroke-dasharray:48,8;stroke-dashoffset:0"
         id="path50" /><path
         d="m 2563.98,2164.02 720,0 0,480 -720,0 0,-480 z"
         style="fill:#cccccc;fill-opacity:1;fill-rule:nonzero;stroke:none"
         id="path52" /><path
         d="m 2563.98,2164.02 720,0 0,480 -720,0 0,-480 z"
         style="fill:none;stroke:#000000;stroke-opacity:1;stroke-width:8;stroke-linecap:butt;stroke-linejoin:miter;stroke-miterlimit:4;stroke-dasharray:48,8;stroke-dashoffset:0"
         id="path54" /><path
         d="m 3843.98,2164.02 720,0 0,480 -720,0 0,-480 z"
         style="fill:#cccccc;fill-opacity:1;fill-rule:nonzero;stroke:none"
         id="path56" /><path
         d="m 3843.98,2164.02 720,0 0,480 -720,0 0,-480 z"
         style="fill:none;stroke:#000000;stroke-opacity:1;stroke-width:8;stroke-linecap:butt;stroke-linejoin:miter;stroke-miterlimit:4;stroke-dasharray:48,8;stroke-dashoffset:0"
         id="path58" /><path
         d="m 3363.98,1444.02 720,0 0,480 -720,0 0,-480 z"
         style="fill:#cccccc;fill-opacity:1;fill-rule:nonzero;stroke:none"
         id="path60" /><path
         d="m 3363.98,1444.02 720,0 0,480 -720,0 0,-480 z"
         style="fill:none;stroke:#000000;stroke-opacity:1;stroke-width:8;stroke-linecap:butt;stroke-linejoin:miter;stroke-miterlimit:4;stroke-dasharray:48,8;stroke-dashoffset:0"
         id="path62" /><path
         d="m 4003.98,724.02 720,0 0,480 -720,0 0,-480 z"
         style="fill:#cccccc;fill-opacity:1;fill-rule:nonzero;stroke:none"
         id="path64" /><path
         d="m 4003.98,724.02 720,0 0,480 -720,0 0,-480 z"
         style="fill:none;stroke:#000000;stroke-opacity:1;stroke-width:8;stroke-linecap:butt;stroke-linejoin:miter;stroke-miterlimit:4;stroke-dasharray:48,8;stroke-dashoffset:0"
         id="path66" /><path
         d="m 4963.98,2164.02 720,0 0,480 -720,0 0,-480 z"
         style="fill:#cccccc;fill-opacity:1;fill-rule:nonzero;stroke:none"
         id="path68" /><path
         d="m 4963.98,2164.02 720,0 0,480 -720,0 0,-480 z"
         style="fill:none;stroke:#000000;stroke-opacity:1;stroke-width:8;stroke-linecap:butt;stroke-linejoin:miter;stroke-miterlimit:4;stroke-dasharray:48,8;stroke-dashoffset:0"
         id="path70" /><path
         d="m 2003.98,4324.02 -480,-240"
         style="fill:none;stroke:#000000;stroke-opacity:1;stroke-width:8;stroke-linecap:butt;stroke-linejoin:miter;stroke-miterlimit:4;stroke-dasharray:none"
         id="path72" /><path
         d="m 1552.62,4098.31 7.15,21.45 -42.93,-39.34 57.26,10.74 -21.48,7.15 z"
         style="fill:#000000;fill-opacity:1;fill-rule:evenodd;stroke:none"
         id="path74" /><path
         d="m 1552.62,4098.31 7.15,21.45 -42.93,-39.34 57.27,10.74 -21.49,7.15 z"
         style="fill:none;stroke:#000000;stroke-opacity:1;stroke-width:4;stroke-linecap:butt;stroke-linejoin:miter;stroke-miterlimit:4;stroke-dasharray:none"
         id="path76" /><path
         d="m 2723.98,4324.02 480,-240"
         style="fill:none;stroke:#000000;stroke-opacity:1;stroke-width:8;stroke-linecap:butt;stroke-linejoin:miter;stroke-miterlimit:4;stroke-dasharray:none"
         id="path78" /><path
         d="m 3175.39,4098.31 -21.48,-7.15 57.26,-10.74 -42.93,39.34 7.15,-21.45 z"
         style="fill:#000000;fill-opacity:1;fill-rule:evenodd;stroke:none"
         id="path80" /><path
         d="m 3175.39,4098.32 -21.48,-7.16 57.27,-10.73 -42.94,39.32 7.15,-21.43 z"
         style="fill:none;stroke:#000000;stroke-opacity:1;stroke-width:4;stroke-linecap:butt;stroke-linejoin:miter;stroke-miterlimit:4;stroke-dasharray:none"
         id="path82" /><path
         d="m 3203.98,3604.02 -480,-240"
         style="fill:none;stroke:#000000;stroke-opacity:1;stroke-width:8;stroke-linecap:butt;stroke-linejoin:miter;stroke-miterlimit:4;stroke-dasharray:none"
         id="path84" /><path
         d="m 2752.62,3378.31 7.15,21.45 -42.93,-39.34 57.26,10.74 -21.48,7.15 z"
         style="fill:#000000;fill-opacity:1;fill-rule:evenodd;stroke:none"
         id="path86" /><path
         d="m 2752.62,3378.31 7.15,21.45 -42.93,-39.34 57.27,10.74 -21.49,7.15 z"
         style="fill:none;stroke:#000000;stroke-opacity:1;stroke-width:4;stroke-linecap:butt;stroke-linejoin:miter;stroke-miterlimit:4;stroke-dasharray:none"
         id="path88" /><path
         d="m 3914.57,3626.05 489.41,-262.03"
         style="fill:none;stroke:#000000;stroke-opacity:1;stroke-width:8;stroke-linecap:butt;stroke-linejoin:miter;stroke-miterlimit:4;stroke-dasharray:none"
         id="path90" /><path
         d="m 4375.78,3379.09 -21.64,-6.52 56.91,-12.34 -41.83,40.54 6.56,-21.68 z"
         style="fill:#000000;fill-opacity:1;fill-rule:evenodd;stroke:none"
         id="path92" /><path
         d="m 4375.78,3379.1 -21.64,-6.53 56.92,-12.35 -41.84,40.56 6.56,-21.68 z"
         style="fill:none;stroke:#000000;stroke-opacity:1;stroke-width:4;stroke-linecap:butt;stroke-linejoin:miter;stroke-miterlimit:4;stroke-dasharray:none"
         id="path94" /><path
         d="m 4403.98,2884.02 -240,-240"
         style="fill:none;stroke:#000000;stroke-opacity:1;stroke-width:8;stroke-linecap:butt;stroke-linejoin:miter;stroke-miterlimit:4;stroke-dasharray:none"
         id="path96" /><path
         d="m 4186.64,2666.63 0,22.62 -28.28,-50.9 50.9,28.28 -22.62,0 z"
         style="fill:#000000;fill-opacity:1;fill-rule:evenodd;stroke:none"
         id="path98" /><path
         d="m 4186.64,2666.64 0.01,22.61 -28.29,-50.89 50.9,28.28 -22.62,0 z"
         style="fill:none;stroke:#000000;stroke-opacity:1;stroke-width:4;stroke-linecap:butt;stroke-linejoin:miter;stroke-miterlimit:4;stroke-dasharray:none"
         id="path100" /><path
         d="m 5123.98,2884.02 240,-240"
         style="fill:none;stroke:#000000;stroke-opacity:1;stroke-width:8;stroke-linecap:butt;stroke-linejoin:miter;stroke-miterlimit:4;stroke-dasharray:none"
         id="path102" /><path
         d="m 5341.37,2666.63 -22.62,0 50.9,-28.28 -28.28,50.9 0,-22.62 z"
         style="fill:#000000;fill-opacity:1;fill-rule:evenodd;stroke:none"
         id="path104" /><path
         d="m 5341.37,2666.63 -22.62,0 50.9,-28.28 -28.28,50.9 0,-22.62 z"
         style="fill:none;stroke:#000000;stroke-opacity:1;stroke-width:4;stroke-linecap:butt;stroke-linejoin:miter;stroke-miterlimit:4;stroke-dasharray:none"
         id="path106" /><path
         d="m 3843.98,2164.02 -160,-240"
         style="fill:none;stroke:#000000;stroke-opacity:1;stroke-width:8;stroke-linecap:butt;stroke-linejoin:miter;stroke-miterlimit:4;stroke-dasharray:none"
         id="path108" /><path
         d="m 3701.76,1950.62 -4.46,22.18 -17.73,-55.46 44.38,37.73 -22.19,-4.45 z"
         style="fill:#000000;fill-opacity:1;fill-rule:evenodd;stroke:none"
         id="path110" /><path
         d="m 3701.76,1950.62 -4.46,22.18 -17.73,-55.47 44.37,37.74 -22.18,-4.45 z"
         style="fill:none;stroke:#000000;stroke-opacity:1;stroke-width:4;stroke-linecap:butt;stroke-linejoin:miter;stroke-miterlimit:4;stroke-dasharray:none"
         id="path112" /><path
         d="m 4083.98,1444.02 240,-240"
         style="fill:none;stroke:#000000;stroke-opacity:1;stroke-width:8;stroke-linecap:butt;stroke-linejoin:miter;stroke-miterlimit:4;stroke-dasharray:none"
         id="path114" /><path
         d="m 4301.37,1226.63 -22.62,0 50.9,-28.28 -28.28,50.9 0,-22.62 z"
         style="fill:#000000;fill-opacity:1;fill-rule:evenodd;stroke:none"
         id="path116" /><path
         d="m 4301.37,1226.63 -22.62,0 50.9,-28.28 -28.28,50.9 0,-22.62 z"
         style="fill:none;stroke:#000000;stroke-opacity:1;stroke-width:4;stroke-linecap:butt;stroke-linejoin:miter;stroke-miterlimit:4;stroke-dasharray:none"
         id="path118" /><path
         d="m 2723.98,2884.02 240,-240"
         style="fill:none;stroke:#000000;stroke-opacity:1;stroke-width:8;stroke-linecap:butt;stroke-linejoin:miter;stroke-miterlimit:4;stroke-dasharray:none"
         id="path120" /><path
         d="m 2941.37,2666.63 -22.62,0 50.9,-28.28 -28.28,50.9 0,-22.62 z"
         style="fill:#000000;fill-opacity:1;fill-rule:evenodd;stroke:none"
         id="path122" /><path
         d="m 2941.37,2666.63 -22.62,0 50.9,-28.28 -28.28,50.9 0,-22.62 z"
         style="fill:none;stroke:#000000;stroke-opacity:1;stroke-width:4;stroke-linecap:butt;stroke-linejoin:miter;stroke-miterlimit:4;stroke-dasharray:none"
         id="path124" /><path
         d="m 2003.98,2884.02 -240,-240"
         style="fill:none;stroke:#000000;stroke-opacity:1;stroke-width:8;stroke-linecap:butt;stroke-linejoin:miter;stroke-miterlimit:4;stroke-dasharray:none"
         id="path126" /><path
         d="m 1786.64,2666.63 0,22.62 -28.28,-50.9 50.9,28.28 -22.62,0 z"
         style="fill:#000000;fill-opacity:1;fill-rule:evenodd;stroke:none"
         id="path128" /><path
         d="m 1786.64,2666.64 0.01,22.61 -28.29,-50.89 50.9,28.28 -22.62,0 z"
         style="fill:none;stroke:#000000;stroke-opacity:1;stroke-width:4;stroke-linecap:butt;stroke-linejoin:miter;stroke-miterlimit:4;stroke-dasharray:none"
         id="path130" /><path
         d="m 1443.98,2164.02 -160,-240"
         style="fill:none;stroke:#000000;stroke-opacity:1;stroke-width:8;stroke-linecap:butt;stroke-linejoin:miter;stroke-miterlimit:4;stroke-dasharray:none"
         id="path132" /><path
         d="m 1301.76,1950.62 -4.46,22.18 -17.73,-55.46 44.38,37.73 -22.19,-4.45 z"
         style="fill:#000000;fill-opacity:1;fill-rule:evenodd;stroke:none"
         id="path134" /><path
         d="m 1301.76,1950.61 -4.45,22.19 -17.74,-55.47 44.37,37.74 -22.18,-4.46 z"
         style="fill:none;stroke:#000000;stroke-opacity:1;stroke-width:4;stroke-linecap:butt;stroke-linejoin:miter;stroke-miterlimit:4;stroke-dasharray:none"
         id="path136" /><path
         d="m 963.98,1444.02 -160,-240"
         style="fill:none;stroke:#000000;stroke-opacity:1;stroke-width:8;stroke-linecap:butt;stroke-linejoin:miter;stroke-miterlimit:4;stroke-dasharray:none"
         id="path138" /><path
         d="m 821.762,1230.62 -4.461,22.18 -17.731,-55.46 44.379,37.73 -22.187,-4.45 z"
         style="fill:#000000;fill-opacity:1;fill-rule:evenodd;stroke:none"
         id="path140" /><path
         d="m 821.758,1230.61 -4.449,22.19 -17.739,-55.47 44.371,37.74 -22.183,-4.46 z"
         style="fill:none;stroke:#000000;stroke-opacity:1;stroke-width:4;stroke-linecap:butt;stroke-linejoin:miter;stroke-miterlimit:4;stroke-dasharray:none"
         id="path142" /><path
         d="m 483.98,724.02 -160,-240"
         style="fill:none;stroke:#000000;stroke-opacity:1;stroke-width:8;stroke-linecap:butt;stroke-linejoin:miter;stroke-miterlimit:4;stroke-dasharray:none"
         id="path144" /><path
         d="m 341.762,510.621 -4.461,22.18 -17.731,-55.461 44.379,37.73 -22.187,-4.449 z"
         style="fill:#000000;fill-opacity:1;fill-rule:evenodd;stroke:none"
         id="path146" /><path
         d="m 341.754,510.613 -4.445,22.188 -17.739,-55.469 44.371,37.742 -22.187,-4.461 z"
         style="fill:none;stroke:#000000;stroke-opacity:1;stroke-width:4;stroke-linecap:butt;stroke-linejoin:miter;stroke-miterlimit:4;stroke-dasharray:none"
         id="path148" /><path
         d="m 2266.17,4571.83 c 2.89,-0.94 5.78,-3.09 8.6,-6.41 2.77,-3.24 5.62,-7.73 8.43,-13.44 l 14.07,-27.96 -14.85,0 -13.12,26.25 c -3.36,6.75 -6.64,11.25 -9.85,13.43 -3.12,2.27 -7.42,3.44 -12.81,3.44 l -15.16,0 0,-43.12 -13.75,0 0,102.03 31.1,0 c 11.64,0 20.35,-2.46 26.09,-7.35 5.82,-4.8 8.75,-12.15 8.75,-22.03 0,-6.48 -1.52,-11.83 -4.53,-16.09 -3.05,-4.18 -7.38,-7.11 -12.97,-8.75 z m -34.69,42.97 0,-36.25 17.35,0 c 6.64,0 11.72,1.48 15.15,4.53 3.4,3.08 5.16,7.65 5.16,13.59 0,5.9 -1.76,10.39 -5.16,13.44 -3.43,3.09 -8.51,4.69 -15.15,4.69 l -17.35,0 z m 117.5,-52.35 c -10.11,0 -17.14,-1.17 -21.09,-3.43 -3.98,-2.31 -5.94,-6.29 -5.94,-11.88 0,-4.49 1.45,-8.05 4.38,-10.62 3.01,-2.62 7.03,-3.91 12.03,-3.91 6.95,0 12.54,2.42 16.72,7.34 4.26,4.96 6.4,11.57 6.4,19.69 l 0,2.81 -12.5,0 z m 25.16,5.32 0,-43.75 -12.66,0 0,11.56 c -2.81,-4.61 -6.44,-8.05 -10.78,-10.31 -4.29,-2.15 -9.49,-3.29 -15.62,-3.29 -7.81,0 -14.1,2.19 -18.75,6.57 -4.61,4.45 -6.88,10.39 -6.88,17.81 0,8.51 2.85,15 8.6,19.37 5.82,4.34 14.41,6.57 25.78,6.57 l 17.65,0 0,1.25 c 0,5.82 -1.95,10.31 -5.78,13.43 -3.75,3.21 -9.1,4.85 -15.93,4.85 -4.38,0 -8.68,-0.59 -12.82,-1.72 -4.18,-1.06 -8.16,-2.62 -11.87,-4.69 l 0,11.72 c 4.57,1.76 8.98,3.05 13.28,3.91 4.34,0.9 8.59,1.4 12.66,1.4 11.13,0 19.41,-2.89 24.84,-8.59 5.51,-5.74 8.28,-14.45 8.28,-26.09 z m 39.73,68.28 13.59,0 -22.34,-25.78 -10.47,0 19.22,25.78 z m -11.41,-35.47 12.66,0 0,-76.56 -12.66,0 0,76.56 z m 6.41,1.87 0,0 z m 28.08,-1.87 59.85,0 0,-11.41 -47.35,-55.15 47.35,0 0,-10 -61.41,0 0,11.56 47.19,55 -45.63,0 0,10 z"
         style="fill:#000000;fill-opacity:1;fill-rule:nonzero;stroke:none"
         id="path150" /><path
         d="m 3558.98,3902.77 0,-13.44 c -5.31,2.46 -10.35,4.29 -15,5.47 -4.6,1.21 -9.1,1.87 -13.43,1.87 -7.5,0 -13.32,-1.48 -17.35,-4.37 -4.06,-2.93 -6.09,-7.07 -6.09,-12.35 0,-4.61 1.33,-8.04 4.06,-10.31 2.7,-2.3 7.85,-4.14 15.47,-5.47 l 8.28,-1.72 c 10.28,-1.99 17.89,-5.5 22.81,-10.47 4.89,-4.92 7.35,-11.52 7.35,-19.84 0,-9.92 -3.36,-17.42 -10,-22.5 -6.56,-5.12 -16.29,-7.66 -29.06,-7.66 -4.93,0 -10.08,0.59 -15.47,1.72 -5.43,1.02 -11.06,2.66 -16.88,4.85 l 0,14.22 c 5.59,-3.13 11.1,-5.55 16.41,-7.19 5.39,-1.56 10.7,-2.35 15.94,-2.35 7.77,0 13.82,1.57 18.12,4.69 4.34,3.09 6.56,7.54 6.56,13.28 0,4.96 -1.6,8.91 -4.68,11.72 -3.05,2.78 -8.09,4.92 -15.16,6.41 l -8.44,1.56 c -10.31,2.07 -17.77,5.31 -22.34,9.69 -4.61,4.33 -6.88,10.47 -6.88,18.28 0,8.94 3.17,16.01 9.53,21.25 6.33,5.19 15.08,7.81 26.25,7.81 4.77,0 9.69,-0.51 14.69,-1.4 4.96,-0.86 10.08,-2.11 15.31,-3.75 z m 69.38,-8.75 -34.84,-54.38 34.84,0 0,54.38 z m -3.75,12.03 17.5,0 0,-66.41 14.53,0 0,-11.56 -14.53,0 0,-24.06 -13.75,0 0,24.06 -46.09,0 0,13.28 42.34,64.69 z"
         style="fill:#000000;fill-opacity:1;fill-rule:nonzero;stroke:none"
         id="path152" /><path
         d="m 1118.98,3902.77 0,-13.44 c -5.31,2.46 -10.35,4.29 -15,5.47 -4.6,1.21 -9.1,1.87 -13.43,1.87 -7.5,0 -13.32,-1.48 -17.35,-4.37 -4.06,-2.93 -6.09,-7.07 -6.09,-12.35 0,-4.61 1.33,-8.04 4.06,-10.31 2.7,-2.3 7.85,-4.14 15.47,-5.47 l 8.28,-1.72 c 10.28,-1.99 17.89,-5.5 22.81,-10.47 4.89,-4.92 7.35,-11.52 7.35,-19.84 0,-9.92 -3.36,-17.42 -10,-22.5 -6.56,-5.12 -16.29,-7.66 -29.06,-7.66 -4.93,0 -10.08,0.59 -15.47,1.72 -5.43,1.02 -11.06,2.66 -16.88,4.85 l 0,14.22 c 5.59,-3.13 11.1,-5.55 16.41,-7.19 5.39,-1.56 10.7,-2.35 15.94,-2.35 7.77,0 13.82,1.57 18.12,4.69 4.34,3.09 6.56,7.54 6.56,13.28 0,4.96 -1.6,8.91 -4.68,11.72 -3.05,2.78 -8.09,4.92 -15.16,6.41 l -8.44,1.56 c -10.31,2.07 -17.77,5.31 -22.34,9.69 -4.61,4.33 -6.88,10.47 -6.88,18.28 0,8.94 3.17,16.01 9.53,21.25 6.33,5.19 15.08,7.81 26.25,7.81 4.77,0 9.69,-0.51 14.69,-1.4 4.96,-0.86 10.08,-2.11 15.31,-3.75 z m 31.57,3.28 54.22,0 0,-11.57 -41.57,0 0,-25 c 1.96,0.59 3.95,1.1 5.94,1.41 1.95,0.39 3.98,0.63 6.09,0.63 11.33,0 20.36,-3.17 27.04,-9.38 6.64,-6.25 10,-14.73 10,-25.31 0,-11.06 -3.48,-19.65 -10.32,-25.78 -6.79,-6.06 -16.44,-9.07 -28.9,-9.07 -4.3,0 -8.67,0.39 -13.13,1.1 -4.37,0.74 -8.98,1.79 -13.75,3.28 l 0,13.91 c 4.14,-2.19 8.44,-3.87 12.81,-5 4.34,-1.06 8.95,-1.57 13.75,-1.57 7.89,0 14.15,2.03 18.75,6.1 4.57,4.14 6.88,9.84 6.88,17.03 0,7.07 -2.31,12.65 -6.88,16.72 -4.6,4.14 -10.86,6.25 -18.75,6.25 -3.67,0 -7.38,-0.43 -11.09,-1.25 -3.67,-0.75 -7.38,-2 -11.09,-3.75 l 0,51.25 z"
         style="fill:#000000;fill-opacity:1;fill-rule:nonzero;stroke:none"
         id="path154" /><path
         d="m 1758.98,2462.77 0,-13.44 c -5.31,2.46 -10.35,4.29 -15,5.47 -4.6,1.21 -9.1,1.87 -13.43,1.87 -7.5,0 -13.32,-1.48 -17.35,-4.37 -4.06,-2.93 -6.09,-7.07 -6.09,-12.35 0,-4.61 1.33,-8.04 4.06,-10.31 2.7,-2.3 7.85,-4.14 15.47,-5.47 l 8.28,-1.72 c 10.28,-1.99 17.89,-5.5 22.81,-10.47 4.89,-4.92 7.35,-11.52 7.35,-19.84 0,-9.92 -3.36,-17.42 -10,-22.5 -6.56,-5.12 -16.29,-7.66 -29.06,-7.66 -4.93,0 -10.08,0.59 -15.47,1.72 -5.43,1.02 -11.06,2.66 -16.88,4.85 l 0,14.22 c 5.59,-3.13 11.1,-5.55 16.41,-7.19 5.39,-1.56 10.7,-2.35 15.94,-2.35 7.77,0 13.82,1.57 18.12,4.69 4.34,3.09 6.56,7.54 6.56,13.28 0,4.96 -1.6,8.91 -4.68,11.72 -3.05,2.78 -8.09,4.92 -15.16,6.41 l -8.44,1.56 c -10.31,2.07 -17.77,5.31 -22.34,9.69 -4.61,4.33 -6.88,10.47 -6.88,18.28 0,8.94 3.17,16.01 9.53,21.25 6.33,5.19 15.08,7.81 26.25,7.81 4.77,0 9.69,-0.51 14.69,-1.4 4.96,-0.86 10.08,-2.11 15.31,-3.75 z m 60.94,-50.32 c -6.56,0 -11.76,-1.79 -15.47,-5.31 -3.75,-3.44 -5.62,-8.24 -5.62,-14.37 0,-6.18 1.87,-11.02 5.62,-14.54 3.71,-3.55 8.91,-5.31 15.47,-5.31 6.53,0 11.72,1.76 15.47,5.31 3.71,3.52 5.63,8.36 5.63,14.54 0,6.13 -1.92,10.93 -5.63,14.37 -3.75,3.52 -8.94,5.31 -15.47,5.31 z m -13.9,5.94 c -5.86,1.45 -10.43,4.22 -13.75,8.28 -3.36,4.03 -5,8.99 -5,14.85 0,8.08 2.89,14.53 8.75,19.21 5.82,4.77 13.78,7.19 23.9,7.19 10.08,0 18.05,-2.42 23.91,-7.19 5.82,-4.68 8.75,-11.13 8.75,-19.21 0,-5.86 -1.68,-10.82 -5,-14.85 -3.36,-4.06 -7.93,-6.83 -13.75,-8.28 6.64,-1.56 11.79,-4.65 15.47,-9.22 3.71,-4.49 5.62,-9.96 5.62,-16.4 0,-9.93 -3.04,-17.54 -9.06,-22.82 -6.06,-5.31 -14.73,-7.97 -25.94,-7.97 -11.25,0 -19.92,2.66 -25.94,7.97 -6.05,5.28 -9.06,12.89 -9.06,22.82 0,6.44 1.88,11.91 5.63,16.4 3.71,4.57 8.9,7.66 15.47,9.22 z m -5,21.72 c 0,-5.24 1.64,-9.34 5,-12.34 3.32,-2.93 7.96,-4.38 13.9,-4.38 5.9,0 10.55,1.45 13.91,4.38 3.32,3 5,7.1 5,12.34 0,5.27 -1.68,9.41 -5,12.34 -3.36,3.01 -8.01,4.53 -13.91,4.53 -5.94,0 -10.58,-1.52 -13.9,-4.53 -3.36,-2.93 -5,-7.07 -5,-12.34 z"
         style="fill:#000000;fill-opacity:1;fill-rule:nonzero;stroke:none"
         id="path156" /><path
         d="m 1318.98,1742.77 0,-13.44 c -5.31,2.46 -10.35,4.29 -15,5.47 -4.6,1.21 -9.1,1.87 -13.43,1.87 -7.5,0 -13.32,-1.48 -17.35,-4.37 -4.06,-2.93 -6.09,-7.07 -6.09,-12.35 0,-4.61 1.33,-8.04 4.06,-10.31 2.7,-2.3 7.85,-4.14 15.47,-5.47 l 8.28,-1.72 c 10.28,-1.99 17.89,-5.5 22.81,-10.47 4.89,-4.92 7.35,-11.52 7.35,-19.84 0,-9.92 -3.36,-17.42 -10,-22.5 -6.56,-5.12 -16.29,-7.66 -29.06,-7.66 -4.93,0 -10.08,0.59 -15.47,1.72 -5.43,1.02 -11.06,2.66 -16.88,4.85 l 0,14.22 c 5.59,-3.13 11.1,-5.55 16.41,-7.19 5.39,-1.56 10.7,-2.35 15.94,-2.35 7.77,0 13.82,1.57 18.12,4.69 4.34,3.09 6.56,7.54 6.56,13.28 0,4.96 -1.6,8.91 -4.68,11.72 -3.05,2.78 -8.09,4.92 -15.16,6.41 l -8.44,1.56 c -10.31,2.07 -17.77,5.31 -22.34,9.69 -4.61,4.33 -6.88,10.47 -6.88,18.28 0,8.94 3.17,16.01 9.53,21.25 6.33,5.19 15.08,7.81 26.25,7.81 4.77,0 9.69,-0.51 14.69,-1.4 4.96,-0.86 10.08,-2.11 15.31,-3.75 z m 62.66,-42.19 c -6.25,0 -11.21,-2.15 -14.84,-6.41 -3.56,-4.3 -5.32,-10.08 -5.32,-17.34 0,-7.42 1.76,-13.24 5.32,-17.5 3.63,-4.3 8.59,-6.41 14.84,-6.41 6.13,0 11.02,2.11 14.69,6.41 3.63,4.26 5.47,10.08 5.47,17.5 0,7.26 -1.84,13.04 -5.47,17.34 -3.67,4.26 -8.56,6.41 -14.69,6.41 z m 27.34,43.28 0,-12.66 c -3.43,1.64 -6.95,2.89 -10.46,3.75 -3.56,0.9 -7.07,1.41 -10.47,1.41 -9.18,0 -16.17,-3.09 -20.94,-9.22 -4.81,-6.17 -7.54,-15.51 -8.13,-27.97 2.58,3.95 5.94,6.95 10,9.06 4.03,2.15 8.52,3.29 13.44,3.29 10.2,0 18.28,-3.17 24.22,-9.38 6.02,-6.25 9.06,-14.73 9.06,-25.31 0,-10.55 -3.16,-18.99 -9.37,-25.31 -6.17,-6.37 -14.42,-9.54 -24.69,-9.54 -11.87,0 -20.98,4.54 -27.19,13.6 -6.17,9.02 -9.22,22.19 -9.22,39.37 0,16.14 3.79,28.99 11.41,38.6 7.7,9.57 17.97,14.37 30.78,14.37 3.52,0 7.03,-0.39 10.47,-1.09 3.52,-0.63 7.23,-1.64 11.09,-2.97 z"
         style="fill:#000000;fill-opacity:1;fill-rule:nonzero;stroke:none"
         id="path158" /><path
         d="m 318.98,302.77 0,-13.442 c -5.308,2.461 -10.351,4.293 -15,5.473 -4.601,1.211 -9.101,1.871 -13.429,1.871 -7.5,0 -13.321,-1.481 -17.352,-4.371 -4.058,-2.93 -6.09,-7.071 -6.09,-12.352 0,-4.609 1.332,-8.039 4.063,-10.308 2.699,-2.301 7.848,-4.141 15.469,-5.469 l 8.281,-1.723 c 10.277,-1.988 17.887,-5.5 22.808,-10.469 4.891,-4.921 7.348,-11.519 7.348,-19.839 0,-9.922 -3.359,-17.422 -10,-22.5 -6.558,-5.121 -16.289,-7.661 -29.058,-7.661 -4.93,0 -10.079,0.59 -15.469,1.719 -5.43,1.02 -11.063,2.66 -16.879,4.852 l 0,14.219 c 5.59,-3.129 11.098,-5.551 16.406,-7.192 5.391,-1.558 10.703,-2.348 15.942,-2.348 7.769,0 13.82,1.571 18.121,4.692 4.339,3.09 6.558,7.539 6.558,13.277 0,4.961 -1.597,8.91 -4.679,11.723 -3.051,2.777 -8.09,4.918 -15.161,6.406 l -8.437,1.563 c -10.313,2.07 -17.774,5.308 -22.344,9.687 -4.609,4.332 -6.879,10.473 -6.879,18.281 0,8.942 3.172,16.012 9.531,21.25 6.329,5.192 15.079,7.813 26.25,7.813 4.77,0 9.692,-0.512 14.692,-1.402 4.957,-0.86 10.078,-2.11 15.308,-3.75 z m 27.969,3.281 65.629,0 0,-5.781 -37.187,-96.25 -14.371,0 34.839,90.46 -48.91,0 0,11.571 z"
         style="fill:#000000;fill-opacity:1;fill-rule:nonzero;stroke:none"
         id="path160" /><path
         d="m 2878.98,2462.77 0,-13.44 c -5.31,2.46 -10.35,4.29 -15,5.47 -4.6,1.21 -9.1,1.87 -13.43,1.87 -7.5,0 -13.32,-1.48 -17.35,-4.37 -4.06,-2.93 -6.09,-7.07 -6.09,-12.35 0,-4.61 1.33,-8.04 4.06,-10.31 2.7,-2.3 7.85,-4.14 15.47,-5.47 l 8.28,-1.72 c 10.28,-1.99 17.89,-5.5 22.81,-10.47 4.89,-4.92 7.35,-11.52 7.35,-19.84 0,-9.92 -3.36,-17.42 -10,-22.5 -6.56,-5.12 -16.29,-7.66 -29.06,-7.66 -4.93,0 -10.08,0.59 -15.47,1.72 -5.43,1.02 -11.06,2.66 -16.88,4.85 l 0,14.22 c 5.59,-3.13 11.1,-5.55 16.41,-7.19 5.39,-1.56 10.7,-2.35 15.94,-2.35 7.77,0 13.82,1.57 18.12,4.69 4.34,3.09 6.56,7.54 6.56,13.28 0,4.96 -1.6,8.91 -4.68,11.72 -3.05,2.78 -8.09,4.92 -15.16,6.41 l -8.44,1.56 c -10.31,2.07 -17.77,5.31 -22.34,9.69 -4.61,4.33 -6.88,10.47 -6.88,18.28 0,8.94 3.17,16.01 9.53,21.25 6.33,5.19 15.08,7.81 26.25,7.81 4.77,0 9.69,-0.51 14.69,-1.4 4.96,-0.86 10.08,-2.11 15.31,-3.75 z m 33.75,-87.19 22.66,0 0,77.97 -24.69,-5 0,12.65 24.53,4.85 13.75,0 0,-90.47 22.5,0 0,-11.56 -58.75,0 0,11.56 z"
         style="fill:#000000;fill-opacity:1;fill-rule:nonzero;stroke:none"
         id="path162" /><path
         d="m 4158.98,2462.77 0,-13.44 c -5.31,2.46 -10.35,4.29 -15,5.47 -4.6,1.21 -9.1,1.87 -13.43,1.87 -7.5,0 -13.32,-1.48 -17.35,-4.37 -4.06,-2.93 -6.09,-7.07 -6.09,-12.35 0,-4.61 1.33,-8.04 4.06,-10.31 2.7,-2.3 7.85,-4.14 15.47,-5.47 l 8.28,-1.72 c 10.28,-1.99 17.89,-5.5 22.81,-10.47 4.89,-4.92 7.35,-11.52 7.35,-19.84 0,-9.92 -3.36,-17.42 -10,-22.5 -6.56,-5.12 -16.29,-7.66 -29.06,-7.66 -4.93,0 -10.08,0.59 -15.47,1.72 -5.43,1.02 -11.06,2.66 -16.88,4.85 l 0,14.22 c 5.59,-3.13 11.1,-5.55 16.41,-7.19 5.39,-1.56 10.7,-2.35 15.94,-2.35 7.77,0 13.82,1.57 18.12,4.69 4.34,3.09 6.56,7.54 6.56,13.28 0,4.96 -1.6,8.91 -4.68,11.72 -3.05,2.78 -8.09,4.92 -15.16,6.41 l -8.44,1.56 c -10.31,2.07 -17.77,5.31 -22.34,9.69 -4.61,4.33 -6.88,10.47 -6.88,18.28 0,8.94 3.17,16.01 9.53,21.25 6.33,5.19 15.08,7.81 26.25,7.81 4.77,0 9.69,-0.51 14.69,-1.4 4.96,-0.86 10.08,-2.11 15.31,-3.75 z m 31.72,-96.57 0,12.5 c 3.52,-1.68 7.07,-2.93 10.63,-3.75 3.51,-0.86 7.03,-1.25 10.47,-1.25 9.02,0 15.97,3.01 20.78,9.07 4.88,6.13 7.65,15.46 8.28,27.96 -2.62,-3.86 -5.98,-6.91 -10,-9.06 -4.06,-2.11 -8.56,-3.12 -13.44,-3.12 -10.23,0 -18.36,3.04 -24.37,9.22 -5.94,6.21 -8.91,14.72 -8.91,25.46 0,10.39 3.05,18.79 9.22,25.16 6.21,6.33 14.53,9.53 24.84,9.53 11.84,0 20.86,-4.57 27.03,-13.59 6.22,-9.06 9.38,-22.23 9.38,-39.38 0,-16.05 -3.83,-28.94 -11.41,-38.59 -7.61,-9.61 -17.89,-14.38 -30.78,-14.38 -3.55,0 -7.11,0.39 -10.62,1.1 -3.56,0.62 -7.27,1.64 -11.1,3.12 z m 27.5,43.28 c 6.21,0 11.14,2.07 14.69,6.25 3.63,4.26 5.47,10.08 5.47,17.5 0,7.27 -1.84,13.05 -5.47,17.35 -3.55,4.26 -8.48,6.4 -14.69,6.4 -6.17,0 -11.05,-2.14 -14.68,-6.4 -3.68,-4.3 -5.47,-10.08 -5.47,-17.35 0,-7.42 1.79,-13.24 5.47,-17.5 3.63,-4.18 8.51,-6.25 14.68,-6.25 z"
         style="fill:#000000;fill-opacity:1;fill-rule:nonzero;stroke:none"
         id="path164" /><path
         d="m 4318.98,1022.77 0,-13.44 c -5.31,2.46 -10.35,4.29 -15,5.47 -4.6,1.21 -9.1,1.87 -13.43,1.87 -7.5,0 -13.32,-1.48 -17.35,-4.37 -4.06,-2.93 -6.09,-7.07 -6.09,-12.351 0,-4.609 1.33,-8.039 4.06,-10.308 2.7,-2.301 7.85,-4.141 15.47,-5.469 l 8.28,-1.723 c 10.28,-1.988 17.89,-5.5 22.81,-10.469 4.89,-4.921 7.35,-11.519 7.35,-19.839 0,-9.922 -3.36,-17.422 -10,-22.5 -6.56,-5.121 -16.29,-7.661 -29.06,-7.661 -4.93,0 -10.08,0.59 -15.47,1.719 -5.43,1.02 -11.06,2.66 -16.88,4.852 l 0,14.219 c 5.59,-3.129 11.1,-5.551 16.41,-7.192 5.39,-1.558 10.7,-2.348 15.94,-2.348 7.77,0 13.82,1.571 18.12,4.692 4.34,3.09 6.56,7.539 6.56,13.277 0,4.961 -1.6,8.91 -4.68,11.723 -3.05,2.777 -8.09,4.918 -15.16,6.406 l -8.44,1.563 c -10.31,2.07 -17.77,5.308 -22.34,9.687 -4.61,4.332 -6.88,10.473 -6.88,18.281 0,8.941 3.17,16.011 9.53,21.251 6.33,5.19 15.08,7.81 26.25,7.81 4.77,0 9.69,-0.51 14.69,-1.4 4.96,-0.86 10.08,-2.11 15.31,-3.75 z m 73.29,-43.75 c 6.52,-1.372 11.64,-4.301 15.31,-8.75 3.71,-4.5 5.62,-10.04 5.62,-16.571 0,-10.109 -3.51,-17.929 -10.47,-23.429 -6.87,-5.551 -16.68,-8.29 -29.37,-8.29 -4.3,0 -8.71,0.508 -13.28,1.411 -4.49,0.82 -9.18,2.07 -14.06,3.75 l 0,13.281 c 3.82,-2.192 8.04,-3.871 12.65,-5 4.57,-1.172 9.3,-1.723 14.22,-1.723 8.63,0 15.2,1.641 19.69,5 4.57,3.403 6.87,8.442 6.87,15 0,6.02 -2.15,10.711 -6.4,14.071 -4.18,3.39 -10.04,5.152 -17.5,5.152 l -11.88,0 0,11.25 12.5,0 c 6.76,0 11.92,1.328 15.47,4.058 3.63,2.782 5.47,6.758 5.47,11.88 0,5.19 -1.91,9.22 -5.63,12.03 -3.67,2.77 -8.98,4.22 -15.93,4.22 -3.75,0 -7.85,-0.43 -12.19,-1.25 -4.3,-0.86 -9.02,-2.15 -14.22,-3.91 l 0,12.35 c 5.2,1.44 10.08,2.54 14.69,3.28 4.57,0.7 8.9,1.09 12.97,1.09 10.5,0 18.79,-2.42 24.84,-7.19 6.13,-4.68 9.22,-11.13 9.22,-19.21 0,-5.75 -1.64,-10.551 -4.84,-14.379 -3.25,-3.871 -7.86,-6.602 -13.75,-8.121 z"
         style="fill:#000000;fill-opacity:1;fill-rule:nonzero;stroke:none"
         id="path166" /><path
         d="m 5318.98,2462.77 0,-13.44 c -5.31,2.46 -10.35,4.29 -15,5.47 -4.6,1.21 -9.1,1.87 -13.43,1.87 -7.5,0 -13.32,-1.48 -17.35,-4.37 -4.06,-2.93 -6.09,-7.07 -6.09,-12.35 0,-4.61 1.33,-8.04 4.06,-10.31 2.7,-2.3 7.85,-4.14 15.47,-5.47 l 8.28,-1.72 c 10.28,-1.99 17.89,-5.5 22.81,-10.47 4.89,-4.92 7.35,-11.52 7.35,-19.84 0,-9.92 -3.36,-17.42 -10,-22.5 -6.56,-5.12 -16.29,-7.66 -29.06,-7.66 -4.93,0 -10.08,0.59 -15.47,1.72 -5.43,1.02 -11.06,2.66 -16.88,4.85 l 0,14.22 c 5.59,-3.13 11.1,-5.55 16.41,-7.19 5.39,-1.56 10.7,-2.35 15.94,-2.35 7.77,0 13.82,1.57 18.12,4.69 4.34,3.09 6.56,7.54 6.56,13.28 0,4.96 -1.6,8.91 -4.68,11.72 -3.05,2.78 -8.09,4.92 -15.16,6.41 l -8.44,1.56 c -10.31,2.07 -17.77,5.31 -22.34,9.69 -4.61,4.33 -6.88,10.47 -6.88,18.28 0,8.94 3.17,16.01 9.53,21.25 6.33,5.19 15.08,7.81 26.25,7.81 4.77,0 9.69,-0.51 14.69,-1.4 4.96,-0.86 10.08,-2.11 15.31,-3.75 z m 43.29,-87.19 48.12,0 0,-11.56 -64.69,0 0,11.56 c 5.2,5.39 12.35,12.69 21.41,21.87 9.02,9.14 14.73,15.04 17.03,17.66 4.34,4.96 7.42,9.22 9.22,12.66 1.76,3.39 2.66,6.79 2.66,10.15 0,5.39 -1.96,9.85 -5.79,13.28 -3.75,3.4 -8.71,5.16 -14.84,5.16 -4.3,0 -8.83,-0.82 -13.59,-2.34 -4.81,-1.49 -9.96,-3.79 -15.47,-6.88 l 0,14.06 c 5.51,2.15 10.66,3.83 15.47,5 4.88,1.14 9.37,1.72 13.43,1.72 10.51,0 18.91,-2.69 25.16,-7.97 6.33,-5.23 9.53,-12.26 9.53,-21.09 0,-4.3 -0.82,-8.32 -2.34,-12.03 -1.56,-3.75 -4.46,-8.21 -8.6,-13.28 -1.17,-1.25 -4.8,-5.08 -10.93,-11.41 -6.06,-6.37 -14.65,-15.23 -25.78,-26.56 z"
         style="fill:#000000;fill-opacity:1;fill-rule:nonzero;stroke:none"
         id="path168" /><path
         d="m 1688.52,4296.98 c -7.11,0 -12.47,-3.51 -16.1,-10.46 -3.55,-7 -5.31,-17.54 -5.31,-31.57 0,-13.98 1.76,-24.49 5.31,-31.56 3.63,-6.99 8.99,-10.47 16.1,-10.47 7.14,0 12.53,3.48 16.09,10.47 3.51,7.07 5.31,17.58 5.31,31.56 0,14.03 -1.8,24.57 -5.31,31.57 -3.56,6.95 -8.95,10.46 -16.09,10.46 z m 0,10.94 c 11.44,0 20.19,-4.57 26.25,-13.59 6.01,-9.06 9.06,-22.23 9.06,-39.38 0,-17.18 -3.05,-30.35 -9.06,-39.37 -6.06,-9.06 -14.81,-13.6 -26.25,-13.6 -11.49,0 -20.24,4.54 -26.25,13.6 -6.06,9.02 -9.07,22.19 -9.07,39.37 0,17.15 3.01,30.32 9.07,39.38 6.01,9.02 14.76,13.59 26.25,13.59 z"
         style="fill:#000000;fill-opacity:1;fill-rule:nonzero;stroke:none"
         id="path170" /><path
         d="m 2928.52,3576.98 c -7.11,0 -12.47,-3.51 -16.1,-10.46 -3.55,-7 -5.31,-17.54 -5.31,-31.57 0,-13.98 1.76,-24.49 5.31,-31.56 3.63,-6.99 8.99,-10.47 16.1,-10.47 7.14,0 12.53,3.48 16.09,10.47 3.51,7.07 5.31,17.58 5.31,31.56 0,14.03 -1.8,24.57 -5.31,31.57 -3.56,6.95 -8.95,10.46 -16.09,10.46 z m 0,10.94 c 11.44,0 20.19,-4.57 26.25,-13.59 6.01,-9.06 9.06,-22.23 9.06,-39.38 0,-17.18 -3.05,-30.35 -9.06,-39.37 -6.06,-9.06 -14.81,-13.6 -26.25,-13.6 -11.49,0 -20.24,4.54 -26.25,13.6 -6.06,9.02 -9.07,22.19 -9.07,39.37 0,17.15 3.01,30.32 9.07,39.38 6.01,9.02 14.76,13.59 26.25,13.59 z"
         style="fill:#000000;fill-opacity:1;fill-rule:nonzero;stroke:none"
         id="path172" /><path
         d="m 1808.52,2856.98 c -7.11,0 -12.47,-3.51 -16.1,-10.46 -3.55,-7 -5.31,-17.54 -5.31,-31.57 0,-13.98 1.76,-24.49 5.31,-31.56 3.63,-6.99 8.99,-10.47 16.1,-10.47 7.14,0 12.53,3.48 16.09,10.47 3.51,7.07 5.31,17.58 5.31,31.56 0,14.03 -1.8,24.57 -5.31,31.57 -3.56,6.95 -8.95,10.46 -16.09,10.46 z m 0,10.94 c 11.44,0 20.19,-4.57 26.25,-13.59 6.01,-9.06 9.06,-22.23 9.06,-39.38 0,-17.18 -3.05,-30.35 -9.06,-39.37 -6.06,-9.06 -14.81,-13.6 -26.25,-13.6 -11.49,0 -20.24,4.54 -26.25,13.6 -6.06,9.02 -9.07,22.19 -9.07,39.37 0,17.15 3.01,30.32 9.07,39.38 6.01,9.02 14.76,13.59 26.25,13.59 z"
         style="fill:#000000;fill-opacity:1;fill-rule:nonzero;stroke:none"
         id="path174" /><path
         d="m 1328.52,2136.98 c -7.11,0 -12.47,-3.51 -16.1,-10.46 -3.55,-7 -5.31,-17.54 -5.31,-31.57 0,-13.98 1.76,-24.49 5.31,-31.56 3.63,-6.99 8.99,-10.47 16.1,-10.47 7.14,0 12.53,3.48 16.09,10.47 3.51,7.07 5.31,17.58 5.31,31.56 0,14.03 -1.8,24.57 -5.31,31.57 -3.56,6.95 -8.95,10.46 -16.09,10.46 z m 0,10.94 c 11.44,0 20.19,-4.57 26.25,-13.59 6.01,-9.06 9.06,-22.23 9.06,-39.38 0,-17.18 -3.05,-30.35 -9.06,-39.37 -6.06,-9.06 -14.81,-13.6 -26.25,-13.6 -11.49,0 -20.24,4.54 -26.25,13.6 -6.06,9.02 -9.07,22.19 -9.07,39.37 0,17.15 3.01,30.32 9.07,39.38 6.01,9.02 14.76,13.59 26.25,13.59 z"
         style="fill:#000000;fill-opacity:1;fill-rule:nonzero;stroke:none"
         id="path176" /><path
         d="m 808.52,1416.98 c -7.11,0 -12.469,-3.51 -16.098,-10.46 -3.551,-7 -5.313,-17.54 -5.313,-31.57 0,-13.98 1.762,-24.49 5.313,-31.56 3.629,-6.99 8.988,-10.47 16.098,-10.47 7.14,0 12.531,3.48 16.089,10.47 3.512,7.07 5.313,17.58 5.313,31.56 0,14.03 -1.801,24.57 -5.313,31.57 -3.558,6.95 -8.949,10.46 -16.089,10.46 z m 0,10.94 c 11.441,0 20.191,-4.57 26.25,-13.59 6.011,-9.06 9.058,-22.23 9.058,-39.38 0,-17.18 -3.047,-30.35 -9.058,-39.37 -6.059,-9.06 -14.809,-13.6 -26.25,-13.6 -11.489,0 -20.239,4.54 -26.25,13.6 -6.059,9.02 -9.071,22.19 -9.071,39.37 0,17.15 3.012,30.32 9.071,39.38 6.011,9.02 14.761,13.59 26.25,13.59 z"
         style="fill:#000000;fill-opacity:1;fill-rule:nonzero;stroke:none"
         id="path178" /><path
         d="m 368.52,696.98 c -7.11,0 -12.469,-3.511 -16.098,-10.46 -3.551,-7 -5.313,-17.54 -5.313,-31.571 0,-13.98 1.762,-24.488 5.313,-31.558 3.629,-6.993 8.988,-10.469 16.098,-10.469 7.14,0 12.531,3.476 16.089,10.469 3.512,7.07 5.313,17.578 5.313,31.558 0,14.031 -1.801,24.571 -5.313,31.571 -3.558,6.949 -8.949,10.46 -16.089,10.46 z m 0,10.942 c 11.441,0 20.191,-4.57 26.25,-13.594 6.011,-9.058 9.058,-22.226 9.058,-39.379 0,-17.179 -3.047,-30.347 -9.058,-39.371 -6.059,-9.058 -14.809,-13.598 -26.25,-13.598 -11.489,0 -20.239,4.54 -26.25,13.598 -6.059,9.024 -9.071,22.192 -9.071,39.371 0,17.153 3.012,30.321 9.071,39.379 6.011,9.024 14.761,13.594 26.25,13.594 z"
         style="fill:#000000;fill-opacity:1;fill-rule:nonzero;stroke:none"
         id="path180" /><path
         d="m 3021.33,4215.58 22.65,0 0,77.97 -24.68,-5 0,12.65 24.53,4.85 13.75,0 0,-90.47 22.5,0 0,-11.56 -58.75,0 0,11.56 z"
         style="fill:#000000;fill-opacity:1;fill-rule:nonzero;stroke:none"
         id="path182" /><path
         d="m 4261.33,3495.58 22.65,0 0,77.97 -24.68,-5 0,12.65 24.53,4.85 13.75,0 0,-90.47 22.5,0 0,-11.56 -58.75,0 0,11.56 z"
         style="fill:#000000;fill-opacity:1;fill-rule:nonzero;stroke:none"
         id="path184" /><path
         d="m 2861.33,2775.58 22.65,0 0,77.97 -24.68,-5 0,12.65 24.53,4.85 13.75,0 0,-90.47 22.5,0 0,-11.56 -58.75,0 0,11.56 z"
         style="fill:#000000;fill-opacity:1;fill-rule:nonzero;stroke:none"
         id="path186" /><path
         d="m 5301.33,2735.58 22.65,0 0,77.97 -24.68,-5 0,12.65 24.53,4.85 13.75,0 0,-90.47 22.5,0 0,-11.56 -58.75,0 0,11.56 z"
         style="fill:#000000;fill-opacity:1;fill-rule:nonzero;stroke:none"
         id="path188" /><path
         d="m 4208.52,2856.98 c -7.11,0 -12.47,-3.51 -16.1,-10.46 -3.55,-7 -5.31,-17.54 -5.31,-31.57 0,-13.98 1.76,-24.49 5.31,-31.56 3.63,-6.99 8.99,-10.47 16.1,-10.47 7.14,0 12.53,3.48 16.09,10.47 3.51,7.07 5.31,17.58 5.31,31.56 0,14.03 -1.8,24.57 -5.31,31.57 -3.56,6.95 -8.95,10.46 -16.09,10.46 z m 0,10.94 c 11.44,0 20.19,-4.57 26.25,-13.59 6.01,-9.06 9.06,-22.23 9.06,-39.38 0,-17.18 -3.05,-30.35 -9.06,-39.37 -6.06,-9.06 -14.81,-13.6 -26.25,-13.6 -11.49,0 -20.24,4.54 -26.25,13.6 -6.06,9.02 -9.07,22.19 -9.07,39.37 0,17.15 3.01,30.32 9.07,39.38 6.01,9.02 14.76,13.59 26.25,13.59 z"
         style="fill:#000000;fill-opacity:1;fill-rule:nonzero;stroke:none"
         id="path190" /><path
         d="m 3688.52,2096.98 c -7.11,0 -12.47,-3.51 -16.1,-10.46 -3.55,-7 -5.31,-17.54 -5.31,-31.57 0,-13.98 1.76,-24.49 5.31,-31.56 3.63,-6.99 8.99,-10.47 16.1,-10.47 7.14,0 12.53,3.48 16.09,10.47 3.51,7.07 5.31,17.58 5.31,31.56 0,14.03 -1.8,24.57 -5.31,31.57 -3.56,6.95 -8.95,10.46 -16.09,10.46 z m 0,10.94 c 11.44,0 20.19,-4.57 26.25,-13.59 6.01,-9.06 9.06,-22.23 9.06,-39.38 0,-17.18 -3.05,-30.35 -9.06,-39.37 -6.06,-9.06 -14.81,-13.6 -26.25,-13.6 -11.49,0 -20.24,4.54 -26.25,13.6 -6.06,9.02 -9.07,22.19 -9.07,39.37 0,17.15 3.01,30.32 9.07,39.38 6.01,9.02 14.76,13.59 26.25,13.59 z"
         style="fill:#000000;fill-opacity:1;fill-rule:nonzero;stroke:none"
         id="path192" /><path
         d="m 4261.33,1335.58 22.65,0 0,77.97 -24.68,-5 0,12.65 24.53,4.85 13.75,0 0,-90.47 22.5,0 0,-11.56 -58.75,0 0,11.56 z"
         style="fill:#000000;fill-opacity:1;fill-rule:nonzero;stroke:none"
         id="path194" /></g></g></svg>